<?xml version="1.0" encoding="utf-8"?>
<!-- Generator: Adobe Illustrator 25.3.1, SVG Export Plug-In . SVG Version: 6.00 Build 0)  -->
<svg version="1.1" id="Layer_1" xmlns="http://www.w3.org/2000/svg" xmlns:xlink="http://www.w3.org/1999/xlink" x="0px" y="0px"
	 viewBox="0 0 104.5 104.5" style="enable-background:new 0 0 104.5 104.5;" xml:space="preserve">
<style type="text/css">
	.st0{fill:url(#SVGID_1_);stroke:#000000;stroke-miterlimit:10;}
	.st1{fill:url(#SVGID_2_);stroke:#000000;stroke-miterlimit:10;}
	.st2{fill:url(#SVGID_3_);}
	.st3{fill:url(#SVGID_4_);}
	.st4{fill:url(#SVGID_5_);}
	.st5{fill:url(#SVGID_6_);}
	.st6{fill:url(#SVGID_7_);}
	.st7{fill:url(#SVGID_8_);}
	.st8{fill:url(#SVGID_9_);}
	.st9{fill:url(#SVGID_10_);}
	.st10{fill:url(#SVGID_11_);}
</style>
<g>
	<linearGradient id="SVGID_1_" gradientUnits="userSpaceOnUse" x1="0.7386" y1="16.9641" x2="0.7386" y2="16.9641">
		<stop  offset="0" style="stop-color:#C1272D"/>
		<stop  offset="1" style="stop-color:#C60DD9"/>
	</linearGradient>
	<path class="st0" d="M0.7,17"/>
	<linearGradient id="SVGID_2_" gradientUnits="userSpaceOnUse" x1="95.6497" y1="35.0193" x2="95.6497" y2="35.0193">
		<stop  offset="0" style="stop-color:#C1272D"/>
		<stop  offset="1" style="stop-color:#C60DD9"/>
	</linearGradient>
	<path class="st1" d="M95.6,35"/>
	<g>
		<linearGradient id="SVGID_3_" gradientUnits="userSpaceOnUse" x1="0" y1="52.2676" x2="104.5352" y2="52.2676">
			<stop  offset="0" style="stop-color:#C1272D"/>
			<stop  offset="1" style="stop-color:#C60DD9"/>
		</linearGradient>
		<path class="st2" d="M52.3,0C23.4,0,0,23.4,0,52.3s23.4,52.3,52.3,52.3s52.3-23.4,52.3-52.3S81.1,0,52.3,0z M52.3,98.9
			C26.5,98.9,5.6,78,5.6,52.3S26.5,5.6,52.3,5.6s46.7,20.9,46.7,46.7S78,98.9,52.3,98.9z"/>
		<linearGradient id="SVGID_4_" gradientUnits="userSpaceOnUse" x1="10.9762" y1="59.8509" x2="43.3756" y2="59.8509">
			<stop  offset="0" style="stop-color:#C1272D"/>
			<stop  offset="1" style="stop-color:#C60DD9"/>
		</linearGradient>
		<path class="st3" d="M30.7,62.3l-19-17.6c-0.5,2.5-0.8,5.2-0.8,7.9c0,5.9,1.2,11.5,3.4,16.6l29,5.8L30.7,62.3z"/>
		<linearGradient id="SVGID_5_" gradientUnits="userSpaceOnUse" x1="12.8867" y1="30.7049" x2="39.2092" y2="30.7049">
			<stop  offset="0" style="stop-color:#C1272D"/>
			<stop  offset="1" style="stop-color:#C60DD9"/>
		</linearGradient>
		<path class="st4" d="M26.2,35.4L26.2,35.4c2.4-2.4,5.5-3.9,8.7-4.4l4.3-17.8c-12.5,4.2-22.4,14.3-26.3,26.9l8.8,8.1
			C21.2,43.6,22.7,38.9,26.2,35.4z"/>
		<linearGradient id="SVGID_6_" gradientUnits="userSpaceOnUse" x1="64.7098" y1="30.1741" x2="92.7482" y2="30.1741">
			<stop  offset="0" style="stop-color:#C1272D"/>
			<stop  offset="1" style="stop-color:#C60DD9"/>
		</linearGradient>
		<path class="st5" d="M76.9,36L76.9,36c0.7,0.7,1.3,1.5,1.9,2.3l13.9,3.4c-2.6-9.5-8.4-17.6-16.2-23.1L64.7,31.4
			C69.1,31.2,73.6,32.7,76.9,36z"/>
		<linearGradient id="SVGID_7_" gradientUnits="userSpaceOnUse" x1="39.2138" y1="24.7963" x2="73.0082" y2="24.7963">
			<stop  offset="0" style="stop-color:#C1272D"/>
			<stop  offset="1" style="stop-color:#C60DD9"/>
		</linearGradient>
		<path class="st6" d="M51.9,38.6l2.6-2.6c0.5-0.5,0.9-0.9,1.4-1.3L73,16.3C67,12.9,60,11,52.6,11c-3,0-5.9,0.3-8.8,0.9l-4.6,18.9
			c3.5,0.4,6.8,1.9,9.5,4.5L51.9,38.6z"/>
		<linearGradient id="SVGID_8_" gradientUnits="userSpaceOnUse" x1="77.5964" y1="56.5432" x2="94.1862" y2="56.5432">
			<stop  offset="0" style="stop-color:#C1272D"/>
			<stop  offset="1" style="stop-color:#C60DD9"/>
		</linearGradient>
		<path class="st7" d="M93.7,46.4l-12.6-3.1c1.3,4.9,0.1,10.4-3.5,14.4l12.9,12c2.4-5.2,3.7-11,3.7-17.2
			C94.2,50.5,94,48.4,93.7,46.4z"/>
		<linearGradient id="SVGID_9_" gradientUnits="userSpaceOnUse" x1="63.3812" y1="76.7607" x2="88.4914" y2="76.7607">
			<stop  offset="0" style="stop-color:#C1272D"/>
			<stop  offset="1" style="stop-color:#C60DD9"/>
		</linearGradient>
		<path class="st8" d="M74.4,61.1L70,65.4l-6.7,27.4c10.7-2.9,19.6-9.9,25.1-19.2L74.7,60.8L74.4,61.1z"/>
		<linearGradient id="SVGID_10_" gradientUnits="userSpaceOnUse" x1="16.955" y1="83.0227" x2="49.3704" y2="83.0227">
			<stop  offset="0" style="stop-color:#C1272D"/>
			<stop  offset="1" style="stop-color:#C60DD9"/>
		</linearGradient>
		<path class="st9" d="M48.9,80.5l-32-6.4c5,8.3,12.9,14.7,22.2,17.9l10.2-11L48.9,80.5z"/>
		<linearGradient id="SVGID_11_" gradientUnits="userSpaceOnUse" x1="43.173" y1="82.729" x2="64.152" y2="82.729">
			<stop  offset="0" style="stop-color:#C1272D"/>
			<stop  offset="1" style="stop-color:#C60DD9"/>
		</linearGradient>
		<path class="st10" d="M54.1,81.3L43.2,93.1c3,0.7,6.2,1.1,9.4,1.1c2.1,0,4.1-0.2,6.1-0.4l5.5-22.5L54.1,81.3z"/>
	</g>
</g>
</svg>
