<svg id="Layer_1" data-name="Layer 1" xmlns="http://www.w3.org/2000/svg" viewBox="0 0 151.24 151.24"><path d="M1.07,24.54" style="fill:#fff;stroke:#000;stroke-miterlimit:10"/><path d="M138.38,50.66" style="fill:#fff;stroke:#000;stroke-miterlimit:10"/><path d="M75.62,0a75.62,75.62,0,1,0,75.62,75.62A75.62,75.62,0,0,0,75.62,0Zm0,143.15a67.53,67.53,0,1,1,67.53-67.53A67.53,67.53,0,0,1,75.62,143.15Z" style="fill:#fff"/><path d="M44.39,90.12,17,64.69A60.18,60.18,0,0,0,20.85,100l41.9,8.45Z" style="fill:#fff"/><path d="M37.94,51.19h0a22.79,22.79,0,0,1,12.53-6.42l6.26-25.69A60.33,60.33,0,0,0,18.64,58L31.33,69.77A22.94,22.94,0,0,1,37.94,51.19Z" style="fill:#fff"/><path d="M111.3,52.15h0a23.38,23.38,0,0,1,2.75,3.33l20.13,4.9a60.25,60.25,0,0,0-23.37-33.45L93.62,45.47A22.93,22.93,0,0,1,111.3,52.15Z" style="fill:#fff"/><path d="M75.1,55.87l3.71-3.72a23.33,23.33,0,0,1,2.06-1.82l24.75-26.69A60.14,60.14,0,0,0,63.4,17.23L56.73,44.61a22.93,22.93,0,0,1,13.69,6.58Z" style="fill:#fff"/><path d="M135.6,67.17l-18.29-4.45a22.94,22.94,0,0,1-5,20.87l18.65,17.3a60,60,0,0,0,5.35-24.82A60.84,60.84,0,0,0,135.6,67.17Z" style="fill:#fff"/><path d="M107.58,88.35l-6.24,6.24L91.7,134.2A60.28,60.28,0,0,0,128,106.46L108,87.9Z" style="fill:#fff"/><path d="M70.76,116.5l-46.23-9.33a60.25,60.25,0,0,0,32.16,25.88l14.74-15.89Z" style="fill:#fff"/><path d="M78.26,117.66l-15.8,17a60.48,60.48,0,0,0,13.61,1.56,59.79,59.79,0,0,0,8.83-.65l7.91-32.5Z" style="fill:#fff"/></svg>