<svg width="254" height="156" viewBox="0 0 254 156" fill="none" xmlns="http://www.w3.org/2000/svg">
<g id="Focus Blind Dating">
<path d="M35.2117 47.426H26.8417C25.9777 47.426 25.3477 47.228 24.9517 46.832C24.5557 46.436 24.3577 45.806 24.3577 44.942V9.94999C24.3577 9.48199 24.4117 9.08599 24.5197 8.76199C24.6637 8.43799 24.8617 8.16799 25.1137 7.95199L32.0797 2.06599C32.2597 1.92199 32.4937 1.81399 32.7817 1.74199C33.1057 1.63399 33.4477 1.57999 33.8077 1.57999H57.8917C58.7557 1.57999 59.3857 1.77799 59.7817 2.17399C60.1777 2.56999 60.3757 3.19999 60.3757 4.06399V10.49C60.3757 10.958 60.3037 11.354 60.1597 11.678C60.0517 12.002 59.8717 12.272 59.6197 12.488L53.5717 17.51C54.3997 17.51 55.0117 17.708 55.4077 18.104C55.8037 18.5 56.0017 19.13 56.0017 19.994V26.474C56.0017 26.942 55.9297 27.338 55.7857 27.662C55.6777 27.986 55.4977 28.256 55.2457 28.472L48.2257 34.304C48.0817 34.448 47.8477 34.574 47.5237 34.682C47.2357 34.79 46.9117 34.844 46.5517 34.844H44.6617V39.056C44.6617 39.524 44.5897 39.92 44.4457 40.244C44.3377 40.568 44.1577 40.838 43.9057 41.054L36.8857 46.886C36.7417 47.03 36.5077 47.156 36.1837 47.264C35.8957 47.372 35.5717 47.426 35.2117 47.426ZM42.1777 41C42.8617 41 43.3477 40.856 43.6357 40.568C43.9597 40.244 44.1217 39.74 44.1217 39.056V28.418H53.5177C54.2017 28.418 54.6877 28.274 54.9757 27.986C55.2997 27.662 55.4617 27.158 55.4617 26.474V19.994C55.4617 19.31 55.2997 18.824 54.9757 18.536C54.6877 18.212 54.2017 18.05 53.5177 18.05H44.1217V12.434H57.8917C58.5757 12.434 59.0617 12.29 59.3497 12.002C59.6737 11.678 59.8357 11.174 59.8357 10.49V4.06399C59.8357 3.37999 59.6737 2.89399 59.3497 2.60599C59.0617 2.28199 58.5757 2.11999 57.8917 2.11999H33.8077C33.1237 2.11999 32.6197 2.28199 32.2957 2.60599C32.0077 2.89399 31.8637 3.37999 31.8637 4.06399V39.056C31.8637 39.74 32.0077 40.244 32.2957 40.568C32.6197 40.856 33.1237 41 33.8077 41H42.1777ZM37.7497 36.14V6.97999H54.9757V7.51999H38.2897V22.964H50.6017V23.504H38.2897V36.14H37.7497Z" fill="white"/>
<path d="M93.6338 44.834C92.3738 45.914 90.6098 46.742 88.3418 47.318C86.0738 47.93 83.1578 48.236 79.5938 48.236C76.0658 48.236 73.1678 47.858 70.8998 47.102C68.6678 46.382 66.9038 45.41 65.6078 44.186C64.3478 42.962 63.4658 41.558 62.9618 39.974C62.4938 38.39 62.2598 36.752 62.2598 35.06V18.266C62.2598 16.61 62.4938 15.08 62.9618 13.676C63.4298 12.236 64.2758 11.012 65.4998 10.004L72.5198 4.17199C73.7798 3.09199 75.5258 2.26399 77.7578 1.68799C80.0258 1.07599 82.9598 0.769989 86.5598 0.769989C90.0878 0.769989 92.9678 1.05799 95.1998 1.63399C97.4678 2.20999 99.2318 3.01999 100.492 4.06399C101.788 5.07199 102.67 6.29599 103.138 7.73599C103.606 9.13999 103.84 10.688 103.84 12.38V30.794C103.84 32.45 103.606 33.98 103.138 35.384C102.67 36.788 101.824 37.994 100.6 39.002L93.6338 44.834ZM103.3 30.794V12.38C103.3 10.724 103.048 9.22999 102.544 7.89799C102.076 6.52999 101.212 5.35999 99.9518 4.38799C98.7278 3.41599 97.0178 2.65999 94.8218 2.11999C92.6618 1.57999 89.9078 1.30999 86.5598 1.30999C83.2118 1.30999 80.4398 1.57999 78.2438 2.11999C76.0478 2.65999 74.3198 3.41599 73.0598 4.38799C71.8358 5.35999 70.9718 6.52999 70.4678 7.89799C69.9998 9.22999 69.7658 10.724 69.7658 12.38V30.794C69.7658 32.45 69.9998 33.962 70.4678 35.33C70.9718 36.662 71.8358 37.814 73.0598 38.786C74.3198 39.722 76.0478 40.46 78.2438 41C80.4398 41.54 83.2118 41.81 86.5598 41.81C89.9078 41.81 92.6618 41.54 94.8218 41C97.0178 40.46 98.7278 39.722 99.9518 38.786C101.212 37.814 102.076 36.662 102.544 35.33C103.048 33.962 103.3 32.45 103.3 30.794ZM97.4138 29.552C97.4138 31.712 96.6398 33.476 95.0918 34.844C93.5438 36.176 90.6638 36.842 86.4518 36.842C82.2398 36.842 79.3778 36.176 77.8658 34.844C76.3538 33.476 75.5978 31.712 75.5978 29.552V13.622C75.5978 11.462 76.3538 9.71599 77.8658 8.38399C79.3778 7.01599 82.2398 6.33199 86.4518 6.33199C90.6638 6.33199 93.5438 7.01599 95.0918 8.38399C96.6398 9.71599 97.4138 11.462 97.4138 13.622V29.552ZM76.1378 29.552C76.1378 31.568 76.8578 33.206 78.2978 34.466C79.7378 35.69 82.4558 36.302 86.4518 36.302C90.4478 36.302 93.1838 35.69 94.6598 34.466C96.1358 33.206 96.8738 31.568 96.8738 29.552V13.622C96.8738 11.606 96.1358 9.98599 94.6598 8.76199C93.1838 7.50199 90.4478 6.87199 86.4518 6.87199C82.4558 6.87199 79.7378 7.50199 78.2978 8.76199C76.8578 9.98599 76.1378 11.606 76.1378 13.622V29.552ZM82.0238 28.85V14.324C82.0238 13.64 82.2938 13.064 82.8338 12.596C83.3738 12.092 84.6158 11.84 86.5598 11.84C88.5038 11.84 89.7458 12.092 90.2858 12.596C90.8258 13.064 91.0958 13.64 91.0958 14.324V28.85C91.0958 29.57 90.8258 30.182 90.2858 30.686C89.7458 31.154 88.5038 31.388 86.5598 31.388C84.6158 31.388 83.3738 31.154 82.8338 30.686C82.2938 30.182 82.0238 29.57 82.0238 28.85ZM82.5638 28.85C82.5638 29.21 82.6358 29.534 82.7798 29.822C82.9238 30.074 83.1938 30.29 83.5898 30.47V20.21C83.5898 19.85 83.5178 19.544 83.3738 19.292C83.2298 19.004 82.9598 18.788 82.5638 18.644V28.85Z" fill="white"/>
<path d="M134.453 47.426H121.277C116.561 47.426 113.069 46.202 110.801 43.754C108.569 41.306 107.453 38.138 107.453 34.25V19.076C107.453 17.096 107.741 15.386 108.317 13.946C108.893 12.47 109.739 11.246 110.855 10.274L117.875 4.38799C118.991 3.45199 120.413 2.74999 122.141 2.28199C123.869 1.81399 125.903 1.57999 128.243 1.57999H141.419C142.283 1.57999 142.913 1.77799 143.309 2.17399C143.705 2.56999 143.903 3.19999 143.903 4.06399V10.598C143.903 11.066 143.831 11.462 143.687 11.786C143.579 12.11 143.399 12.38 143.147 12.596L136.127 18.428C135.983 18.572 135.749 18.698 135.425 18.806C135.137 18.914 134.813 18.968 134.453 18.968H127.811V28.094C127.811 28.85 128.045 29.39 128.513 29.714C128.981 30.002 129.665 30.146 130.565 30.146H141.419C142.283 30.146 142.913 30.344 143.309 30.74C143.705 31.136 143.903 31.766 143.903 32.63V39.056C143.903 39.524 143.831 39.92 143.687 40.244C143.579 40.568 143.399 40.838 143.147 41.054L136.127 46.886C135.983 47.03 135.749 47.156 135.425 47.264C135.137 47.372 134.813 47.426 134.453 47.426ZM141.419 41C142.103 41 142.589 40.856 142.877 40.568C143.201 40.244 143.363 39.74 143.363 39.056V32.63C143.363 31.946 143.201 31.46 142.877 31.172C142.589 30.848 142.103 30.686 141.419 30.686H130.565C129.449 30.686 128.621 30.488 128.081 30.092C127.541 29.66 127.271 28.994 127.271 28.094V15.242C127.271 14.342 127.541 13.676 128.081 13.244C128.621 12.776 129.449 12.542 130.565 12.542H141.419C142.103 12.542 142.589 12.398 142.877 12.11C143.201 11.786 143.363 11.282 143.363 10.598V4.06399C143.363 3.37999 143.201 2.89399 142.877 2.60599C142.589 2.28199 142.103 2.11999 141.419 2.11999H128.243C123.743 2.11999 120.395 3.03799 118.199 4.87399C116.039 6.67399 114.959 9.44599 114.959 13.19V29.984C114.959 33.728 116.039 36.5 118.199 38.3C120.395 40.1 123.743 41 128.243 41H141.419ZM138.449 35.6V36.14H129.431C125.939 36.14 123.617 35.6 122.465 34.52C121.349 33.44 120.791 31.658 120.791 29.174V14.054C120.791 11.498 121.367 9.67999 122.519 8.59999C123.671 7.51999 125.975 6.97999 129.431 6.97999H138.449V7.51999H129.431C126.263 7.51999 124.121 8.02399 123.005 9.03199C121.889 10.004 121.331 11.678 121.331 14.054V29.174C121.331 31.514 121.871 33.17 122.951 34.142C124.031 35.114 126.191 35.6 129.431 35.6H138.449Z" fill="white"/>
<path d="M164.29 48.236C160.798 48.236 157.918 47.858 155.65 47.102C153.418 46.382 151.672 45.41 150.412 44.186C149.152 42.962 148.27 41.558 147.766 39.974C147.298 38.39 147.064 36.752 147.064 35.06V9.94999C147.064 9.48199 147.118 9.08599 147.226 8.76199C147.37 8.43799 147.568 8.16799 147.82 7.95199L154.786 2.06599C154.966 1.92199 155.2 1.81399 155.488 1.74199C155.812 1.63399 156.154 1.57999 156.514 1.57999H164.992C165.856 1.57999 166.486 1.77799 166.882 2.17399C167.278 2.56999 167.476 3.19999 167.476 4.06399V28.688C167.476 29.012 167.53 29.318 167.638 29.606C167.746 29.858 167.98 30.056 168.34 30.2V9.94999C168.34 9.48199 168.394 9.08599 168.502 8.76199C168.61 8.43799 168.772 8.18599 168.988 8.00599L169.042 7.95199L176.062 2.06599C176.242 1.92199 176.476 1.81399 176.764 1.74199C177.052 1.63399 177.394 1.57999 177.79 1.57999H185.998C186.862 1.57999 187.492 1.77799 187.888 2.17399C188.284 2.56999 188.482 3.19999 188.482 4.06399V30.794C188.482 32.45 188.248 33.98 187.78 35.384C187.312 36.788 186.466 37.994 185.242 39.002L178.222 44.834C176.962 45.914 175.216 46.742 172.984 47.318C170.752 47.93 167.854 48.236 164.29 48.236ZM187.942 30.794V4.06399C187.942 3.37999 187.78 2.89399 187.456 2.60599C187.168 2.28199 186.682 2.11999 185.998 2.11999H177.79C177.106 2.11999 176.602 2.28199 176.278 2.60599C175.99 2.89399 175.846 3.37999 175.846 4.06399V28.688C175.846 29.408 175.576 30.02 175.036 30.524C174.496 30.992 173.272 31.226 171.364 31.226C169.492 31.226 168.286 30.992 167.746 30.524C167.206 30.02 166.936 29.408 166.936 28.688V4.06399C166.936 3.37999 166.774 2.89399 166.45 2.60599C166.162 2.28199 165.676 2.11999 164.992 2.11999H156.514C155.83 2.11999 155.326 2.28199 155.002 2.60599C154.714 2.89399 154.57 3.37999 154.57 4.06399V30.794C154.57 32.45 154.804 33.962 155.272 35.33C155.776 36.662 156.64 37.814 157.864 38.786C159.124 39.722 160.834 40.46 162.994 41C165.154 41.54 167.908 41.81 171.256 41.81C174.604 41.81 177.358 41.54 179.518 41C181.678 40.46 183.37 39.722 184.594 38.786C185.854 37.814 186.718 36.662 187.186 35.33C187.69 33.962 187.942 32.45 187.942 30.794ZM160.51 6.97999H161.05V29.498C161.05 31.514 161.752 33.152 163.156 34.412C164.596 35.636 167.314 36.248 171.31 36.248C175.306 36.248 178.024 35.636 179.464 34.412C180.904 33.152 181.624 31.514 181.624 29.498V6.97999H182.164V29.498C182.164 31.658 181.408 33.422 179.896 34.79C178.384 36.122 175.522 36.788 171.31 36.788C167.098 36.788 164.236 36.122 162.724 34.79C161.248 33.422 160.51 31.658 160.51 29.498V6.97999Z" fill="white"/>
<path d="M194.514 47.426C193.65 47.426 193.02 47.228 192.624 46.832C192.228 46.436 192.03 45.806 192.03 44.942V38.624C192.03 38.156 192.084 37.76 192.192 37.436C192.336 37.112 192.534 36.842 192.786 36.626L198.186 32.09C196.278 31.514 194.766 30.542 193.65 29.174C192.57 27.77 192.03 25.772 192.03 23.18V17.51C192.03 15.89 192.3 14.45 192.84 13.19C193.38 11.93 194.154 10.868 195.162 10.004L202.182 4.11799C203.154 3.32599 204.36 2.71399 205.8 2.28199C207.24 1.81399 208.878 1.57999 210.714 1.57999H225.834C226.698 1.57999 227.328 1.77799 227.724 2.17399C228.12 2.56999 228.318 3.19999 228.318 4.06399V10.49C228.318 10.958 228.246 11.354 228.102 11.678C227.994 12.002 227.814 12.272 227.562 12.488L222.702 16.538C224.97 17.042 226.788 17.996 228.156 19.4C229.56 20.768 230.262 22.91 230.262 25.826V31.496C230.262 33.116 229.992 34.556 229.452 35.816C228.912 37.076 228.12 38.138 227.076 39.002L220.11 44.834C219.102 45.662 217.878 46.292 216.438 46.724C214.998 47.192 213.378 47.426 211.578 47.426H194.514ZM218.544 41C222 41 224.718 40.19 226.698 38.57C228.714 36.914 229.722 34.556 229.722 31.496V25.826C229.722 22.802 228.948 20.642 227.4 19.346C225.852 18.05 223.818 17.222 221.298 16.862L213.252 15.782C212.784 15.746 212.424 15.566 212.172 15.242C211.92 14.918 211.794 14.522 211.794 14.054C211.794 13.586 211.92 13.208 212.172 12.92C212.424 12.596 212.784 12.434 213.252 12.434H225.834C226.518 12.434 227.004 12.29 227.292 12.002C227.616 11.678 227.778 11.174 227.778 10.49V4.06399C227.778 3.37999 227.616 2.89399 227.292 2.60599C227.004 2.28199 226.518 2.11999 225.834 2.11999H210.714C207.222 2.11999 204.486 2.94799 202.506 4.60399C200.526 6.22399 199.536 8.56399 199.536 11.624V17.294C199.536 20.318 200.292 22.478 201.804 23.774C203.352 25.07 205.386 25.898 207.906 26.258L216.006 27.392C216.474 27.428 216.816 27.59 217.032 27.878C217.284 28.166 217.41 28.616 217.41 29.228C217.41 29.66 217.284 30.038 217.032 30.362C216.816 30.65 216.474 30.794 216.006 30.794H201.48C200.796 30.794 200.292 30.956 199.968 31.28C199.68 31.568 199.536 32.054 199.536 32.738V39.056C199.536 39.74 199.68 40.244 199.968 40.568C200.292 40.856 200.796 41 201.48 41H218.544ZM222.918 6.97999V7.51999H210.93C209.418 7.51999 208.212 7.93399 207.312 8.76199C206.412 9.58999 205.962 10.634 205.962 11.894V16.322C205.962 17.582 206.214 18.464 206.718 18.968C207.222 19.472 207.888 19.796 208.716 19.94L220.11 22.262C221.19 22.478 222.072 22.946 222.756 23.666C223.476 24.386 223.836 25.682 223.836 27.554V30.686C223.836 32.27 223.296 33.584 222.216 34.628C221.136 35.636 219.678 36.14 217.842 36.14H204.396V35.6H217.842C219.498 35.6 220.812 35.15 221.784 34.25C222.792 33.314 223.296 32.126 223.296 30.686V27.554C223.296 25.862 222.99 24.71 222.378 24.098C221.802 23.45 221.01 23.018 220.002 22.802L208.608 20.48C207.672 20.3 206.898 19.94 206.286 19.4C205.71 18.824 205.422 17.798 205.422 16.322V11.894C205.422 10.454 205.926 9.28399 206.934 8.38399C207.942 7.44799 209.274 6.97999 210.93 6.97999H222.918Z" fill="white"/>
<path d="M22.7812 101.426C21.9172 101.426 21.2872 101.228 20.8912 100.832C20.4952 100.436 20.2972 99.806 20.2972 98.942V63.95C20.2972 63.482 20.3512 63.086 20.4592 62.762C20.6032 62.438 20.8012 62.168 21.0532 61.952L28.0192 56.066C28.1992 55.922 28.4332 55.814 28.7212 55.742C29.0452 55.634 29.3872 55.58 29.7472 55.58H46.9732C50.7172 55.58 53.4712 56.318 55.2352 57.794C56.9992 59.234 57.8812 61.43 57.8812 64.382V66.974C57.8812 68.234 57.7012 69.314 57.3412 70.214C57.0172 71.114 56.5132 71.834 55.8292 72.374L55.6672 72.482C57.6112 72.914 59.0692 73.85 60.0412 75.29C61.0132 76.694 61.4992 78.656 61.4992 81.176V86.144C61.4992 87.764 61.2652 89.168 60.7972 90.356C60.3292 91.508 59.6272 92.48 58.6912 93.272L51.7252 99.158C50.8252 99.914 49.6912 100.472 48.3232 100.832C46.9552 101.228 45.3532 101.426 43.5172 101.426H22.7812ZM50.4832 95C54.0472 95 56.6752 94.28 58.3672 92.84C60.0952 91.4 60.9592 89.168 60.9592 86.144V81.176C60.9592 78.548 60.4012 76.55 59.2852 75.182C58.1692 73.814 56.4592 73.022 54.1552 72.806C55.2352 72.338 56.0272 71.636 56.5312 70.7C57.0712 69.728 57.3412 68.486 57.3412 66.974V64.382C57.3412 61.574 56.4952 59.504 54.8032 58.172C53.1112 56.804 50.5012 56.12 46.9732 56.12H29.7472C29.0632 56.12 28.5592 56.282 28.2352 56.606C27.9472 56.894 27.8032 57.38 27.8032 58.064V93.056C27.8032 93.74 27.9472 94.244 28.2352 94.568C28.5592 94.856 29.0632 95 29.7472 95H50.4832ZM48.3232 90.14H33.7972V60.98H44.7592C46.2352 60.98 47.4412 61.142 48.3772 61.466C49.3132 61.754 50.0332 62.168 50.5372 62.708C51.0412 63.212 51.3832 63.806 51.5632 64.49C51.7432 65.174 51.8332 65.912 51.8332 66.704V70.16C51.8332 71.24 51.6352 72.23 51.2392 73.13C50.8792 74.03 49.9252 74.678 48.3772 75.074C49.8532 75.074 51.0592 75.236 51.9952 75.56C52.9312 75.848 53.6512 76.28 54.1552 76.856C54.6592 77.396 54.9832 78.044 55.1272 78.8C55.3072 79.556 55.3972 80.384 55.3972 81.284V84.74C55.3972 85.532 55.3072 86.27 55.1272 86.954C54.9472 87.602 54.6052 88.16 54.1012 88.628C53.6332 89.096 52.9312 89.474 51.9952 89.762C51.0592 90.014 49.8352 90.14 48.3232 90.14ZM44.7592 61.52H34.3372V75.074H44.7592C46.2352 75.074 47.4052 74.948 48.2692 74.696C49.1332 74.408 49.7812 74.048 50.2132 73.616C50.6812 73.148 50.9692 72.626 51.0772 72.05C51.2212 71.438 51.2932 70.808 51.2932 70.16V66.704C51.2932 65.264 50.8792 64.04 50.0512 63.032C49.2232 62.024 47.4592 61.52 44.7592 61.52ZM39.9532 65.3H44.5432C45.2272 65.3 45.7312 65.48 46.0552 65.84C46.4152 66.2 46.5952 66.74 46.5952 67.46V68.972C46.5952 69.692 46.4152 70.232 46.0552 70.592C45.7312 70.952 45.2272 71.132 44.5432 71.132H39.9532V65.3ZM48.3772 75.614H34.3372V89.6H48.3232C51.0232 89.6 52.7872 89.168 53.6152 88.304C54.4432 87.404 54.8572 86.216 54.8572 84.74V81.284C54.8572 79.664 54.4432 78.314 53.6152 77.234C52.8232 76.154 51.0772 75.614 48.3772 75.614ZM39.9532 79.448H46.9732C47.6572 79.448 48.1612 79.628 48.4852 79.988C48.8452 80.312 49.0252 80.834 49.0252 81.554V83.66C49.0252 84.38 48.8452 84.92 48.4852 85.28C48.1612 85.64 47.6572 85.82 46.9732 85.82H39.9532V79.448Z" fill="white"/>
<path d="M94.8277 101.426H67.3417C66.4777 101.426 65.8477 101.228 65.4517 100.832C65.0557 100.436 64.8577 99.806 64.8577 98.942V63.95C64.8577 63.482 64.9117 63.086 65.0197 62.762C65.1637 62.438 65.3617 62.168 65.6137 61.952L72.5797 56.066C72.7597 55.922 72.9937 55.814 73.2817 55.742C73.6057 55.634 73.9477 55.58 74.3077 55.58H82.6777C83.5417 55.58 84.1717 55.778 84.5677 56.174C84.9637 56.57 85.1617 57.2 85.1617 58.064V80.042L85.2697 79.934L92.2357 74.048C92.4157 73.904 92.6497 73.796 92.9377 73.724C93.2617 73.616 93.6037 73.562 93.9637 73.562H101.794C102.658 73.562 103.288 73.76 103.684 74.156C104.08 74.552 104.278 75.182 104.278 76.046V93.056C104.278 93.524 104.206 93.92 104.062 94.244C103.954 94.568 103.774 94.838 103.522 95.054L96.5017 100.886C96.3577 101.03 96.1237 101.156 95.7997 101.264C95.5117 101.372 95.1877 101.426 94.8277 101.426ZM101.794 95C102.478 95 102.964 94.856 103.252 94.568C103.576 94.244 103.738 93.74 103.738 93.056V76.046C103.738 75.362 103.576 74.876 103.252 74.588C102.964 74.264 102.478 74.102 101.794 74.102H93.9637C93.2797 74.102 92.7757 74.264 92.4517 74.588C92.1637 74.876 92.0197 75.362 92.0197 76.046V84.794H84.6217V58.064C84.6217 57.38 84.4597 56.894 84.1357 56.606C83.8477 56.282 83.3617 56.12 82.6777 56.12H74.3077C73.6237 56.12 73.1197 56.282 72.7957 56.606C72.5077 56.894 72.3637 57.38 72.3637 58.064V93.056C72.3637 93.74 72.5077 94.244 72.7957 94.568C73.1197 94.856 73.6237 95 74.3077 95H101.794ZM78.2497 90.14V60.98H78.7897V89.6H97.5817V78.962H98.1217V90.14H78.2497Z" fill="white"/>
<path d="M132.408 101.426H109.404C108.54 101.426 107.91 101.228 107.514 100.832C107.118 100.436 106.92 99.806 106.92 98.942V92.516C106.92 92.048 106.974 91.652 107.082 91.328C107.226 91.004 107.424 90.734 107.676 90.518L114.21 85.01V72.968H109.404C108.54 72.968 107.91 72.77 107.514 72.374C107.118 71.978 106.92 71.348 106.92 70.484V63.95C106.92 63.482 106.974 63.086 107.082 62.762C107.226 62.438 107.424 62.168 107.676 61.952L114.642 56.066C114.822 55.922 115.056 55.814 115.344 55.742C115.668 55.634 116.01 55.58 116.37 55.58H139.374C140.238 55.58 140.868 55.778 141.264 56.174C141.66 56.57 141.858 57.2 141.858 58.064V64.598C141.858 65.066 141.786 65.462 141.642 65.786C141.534 66.11 141.354 66.38 141.102 66.596L134.676 71.996V84.146H139.374C140.238 84.146 140.868 84.344 141.264 84.74C141.66 85.136 141.858 85.766 141.858 86.63V93.056C141.858 93.524 141.786 93.92 141.642 94.244C141.534 94.568 141.354 94.838 141.102 95.054L134.082 100.886C133.938 101.03 133.704 101.156 133.38 101.264C133.092 101.372 132.768 101.426 132.408 101.426ZM116.37 95H139.374C140.058 95 140.544 94.856 140.832 94.568C141.156 94.244 141.318 93.74 141.318 93.056V86.63C141.318 85.946 141.156 85.46 140.832 85.172C140.544 84.848 140.058 84.686 139.374 84.686H134.136V66.542H139.374C140.058 66.542 140.544 66.398 140.832 66.11C141.156 65.786 141.318 65.282 141.318 64.598V58.064C141.318 57.38 141.156 56.894 140.832 56.606C140.544 56.282 140.058 56.12 139.374 56.12H116.37C115.686 56.12 115.182 56.282 114.858 56.606C114.57 56.894 114.426 57.38 114.426 58.064V64.598C114.426 65.282 114.57 65.786 114.858 66.11C115.182 66.398 115.686 66.542 116.37 66.542H121.716V84.686H116.37C115.686 84.686 115.182 84.848 114.858 85.172C114.57 85.46 114.426 85.946 114.426 86.63V93.056C114.426 93.74 114.57 94.244 114.858 94.568C115.182 94.856 115.686 95 116.37 95ZM136.458 90.14H119.286V89.6H127.656V61.52H119.286V60.98H136.458V61.52H128.196V89.6H136.458V90.14Z" fill="white"/>
<path d="M160.492 61.412L180.364 83.768V60.98H180.904V90.14H180.364V84.578L159.952 61.682C159.916 61.646 159.862 61.61 159.79 61.574C159.754 61.538 159.718 61.52 159.682 61.52C159.646 61.52 159.61 61.538 159.574 61.574C159.574 61.61 159.574 61.646 159.574 61.682V90.14H159.034V61.574C159.034 61.358 159.106 61.196 159.25 61.088C159.394 60.98 159.538 60.926 159.682 60.926C159.826 60.926 159.952 60.962 160.06 61.034C160.168 61.106 160.312 61.232 160.492 61.412ZM163.408 95C164.092 95 164.578 94.856 164.866 94.568C165.19 94.244 165.352 93.74 165.352 93.056V75.236L174.586 86.414V93.056C174.586 93.74 174.73 94.244 175.018 94.568C175.342 94.856 175.846 95 176.53 95H184.63C185.314 95 185.8 94.856 186.088 94.568C186.412 94.244 186.574 93.74 186.574 93.056V58.064C186.574 57.38 186.412 56.894 186.088 56.606C185.8 56.282 185.314 56.12 184.63 56.12H176.53C175.846 56.12 175.342 56.282 175.018 56.606C174.73 56.894 174.586 57.38 174.586 58.064V69.566L164.11 57.578C163.642 57.038 163.156 56.66 162.652 56.444C162.184 56.228 161.608 56.12 160.924 56.12H155.308C154.624 56.12 154.12 56.282 153.796 56.606C153.508 56.894 153.364 57.38 153.364 58.064V93.056C153.364 93.74 153.508 94.244 153.796 94.568C154.12 94.856 154.624 95 155.308 95H163.408ZM165.136 95.054L158.116 100.886C157.972 101.03 157.738 101.156 157.414 101.264C157.126 101.372 156.802 101.426 156.442 101.426H148.342C147.478 101.426 146.848 101.228 146.452 100.832C146.056 100.436 145.858 99.806 145.858 98.942V63.95C145.858 63.482 145.912 63.086 146.02 62.762C146.164 62.438 146.362 62.168 146.614 61.952L153.58 56.066C153.76 55.922 153.994 55.814 154.282 55.742C154.606 55.634 154.948 55.58 155.308 55.58H160.924C161.716 55.58 162.382 55.706 162.922 55.958C163.462 56.21 164.002 56.624 164.542 57.2L168.268 61.52L174.802 56.066C174.982 55.922 175.216 55.814 175.504 55.742C175.828 55.634 176.17 55.58 176.53 55.58H184.63C185.494 55.58 186.124 55.778 186.52 56.174C186.916 56.57 187.114 57.2 187.114 58.064V93.056C187.114 93.524 187.042 93.92 186.898 94.244C186.79 94.568 186.61 94.838 186.358 95.054L179.338 100.886C179.194 101.03 178.96 101.156 178.636 101.264C178.348 101.372 178.024 101.426 177.664 101.426H169.564C168.7 101.426 168.07 101.228 167.674 100.832C167.278 100.436 167.08 99.806 167.08 98.942V92.516L165.892 91.058V93.056C165.892 93.524 165.82 93.92 165.676 94.244C165.568 94.568 165.388 94.838 165.136 95.054Z" fill="white"/>
<path d="M222.945 98.564C221.829 99.5 220.407 100.202 218.679 100.67C216.951 101.174 214.917 101.426 212.577 101.426H194.379C193.515 101.426 192.885 101.228 192.489 100.832C192.093 100.436 191.895 99.806 191.895 98.942V63.95C191.895 63.482 191.949 63.086 192.057 62.762C192.201 62.438 192.399 62.168 192.651 61.952L199.617 56.066C199.797 55.922 200.031 55.814 200.319 55.742C200.643 55.634 200.985 55.58 201.345 55.58H219.543C224.259 55.58 227.733 56.534 229.965 58.442C232.233 60.35 233.367 63.248 233.367 67.136V83.984C233.367 85.928 233.079 87.638 232.503 89.114C231.927 90.554 231.081 91.76 229.965 92.732L222.945 98.564ZM219.543 95C224.043 95 227.373 94.1 229.533 92.3C231.729 90.5 232.827 87.728 232.827 83.984V67.136C232.827 63.392 231.729 60.62 229.533 58.82C227.373 57.02 224.043 56.12 219.543 56.12H201.345C200.661 56.12 200.157 56.282 199.833 56.606C199.545 56.894 199.401 57.38 199.401 58.064V93.056C199.401 93.74 199.545 94.244 199.833 94.568C200.157 94.856 200.661 95 201.345 95H219.543ZM205.287 90.14V60.98H218.355C220.191 60.98 221.667 61.178 222.783 61.574C223.935 61.97 224.817 62.51 225.429 63.194C226.041 63.842 226.455 64.634 226.671 65.57C226.887 66.47 226.995 67.442 226.995 68.486V82.796C226.995 83.84 226.887 84.812 226.671 85.712C226.491 86.612 226.095 87.386 225.483 88.034C224.871 88.682 223.989 89.204 222.837 89.6C221.685 89.96 220.191 90.14 218.355 90.14H205.287ZM218.355 61.52H205.827V89.6H218.355C220.083 89.6 221.469 89.438 222.513 89.114C223.593 88.754 224.421 88.286 224.997 87.71C225.573 87.098 225.951 86.378 226.131 85.55C226.347 84.686 226.455 83.768 226.455 82.796V68.486C226.455 67.514 226.347 66.596 226.131 65.732C225.915 64.868 225.519 64.13 224.943 63.518C224.367 62.906 223.539 62.42 222.459 62.06C221.415 61.7 220.047 61.52 218.355 61.52ZM211.659 66.434H218.085C218.949 66.434 219.579 66.65 219.975 67.082C220.407 67.478 220.623 68.126 220.623 69.026V82.148C220.623 83.048 220.407 83.714 219.975 84.146C219.579 84.578 218.949 84.794 218.085 84.794H211.659V66.434ZM213.117 74.912C213.117 74.444 213.045 74.048 212.901 73.724C212.757 73.4 212.523 73.166 212.199 73.022V84.254H213.117V74.912Z" fill="white"/>
<path d="M31.5454 152.564C30.4294 153.5 29.0074 154.202 27.2794 154.67C25.5514 155.174 23.5174 155.426 21.1774 155.426H2.97942C2.11542 155.426 1.48542 155.228 1.08942 154.832C0.693422 154.436 0.495422 153.806 0.495422 152.942V117.95C0.495422 117.482 0.549422 117.086 0.657422 116.762C0.801422 116.438 0.999422 116.168 1.25142 115.952L8.21742 110.066C8.39742 109.922 8.63142 109.814 8.91942 109.742C9.24342 109.634 9.58542 109.58 9.94542 109.58H28.1434C32.8594 109.58 36.3334 110.534 38.5654 112.442C40.8334 114.35 41.9674 117.248 41.9674 121.136V137.984C41.9674 139.928 41.6794 141.638 41.1034 143.114C40.5274 144.554 39.6814 145.76 38.5654 146.732L31.5454 152.564ZM28.1434 149C32.6434 149 35.9734 148.1 38.1334 146.3C40.3294 144.5 41.4274 141.728 41.4274 137.984V121.136C41.4274 117.392 40.3294 114.62 38.1334 112.82C35.9734 111.02 32.6434 110.12 28.1434 110.12H9.94542C9.26142 110.12 8.75742 110.282 8.43342 110.606C8.14542 110.894 8.00142 111.38 8.00142 112.064V147.056C8.00142 147.74 8.14542 148.244 8.43342 148.568C8.75742 148.856 9.26142 149 9.94542 149H28.1434ZM13.8874 144.14V114.98H26.9554C28.7914 114.98 30.2674 115.178 31.3834 115.574C32.5354 115.97 33.4174 116.51 34.0294 117.194C34.6414 117.842 35.0554 118.634 35.2714 119.57C35.4874 120.47 35.5954 121.442 35.5954 122.486V136.796C35.5954 137.84 35.4874 138.812 35.2714 139.712C35.0914 140.612 34.6954 141.386 34.0834 142.034C33.4714 142.682 32.5894 143.204 31.4374 143.6C30.2854 143.96 28.7914 144.14 26.9554 144.14H13.8874ZM26.9554 115.52H14.4274V143.6H26.9554C28.6834 143.6 30.0694 143.438 31.1134 143.114C32.1934 142.754 33.0214 142.286 33.5974 141.71C34.1734 141.098 34.5514 140.378 34.7314 139.55C34.9474 138.686 35.0554 137.768 35.0554 136.796V122.486C35.0554 121.514 34.9474 120.596 34.7314 119.732C34.5154 118.868 34.1194 118.13 33.5434 117.518C32.9674 116.906 32.1394 116.42 31.0594 116.06C30.0154 115.7 28.6474 115.52 26.9554 115.52ZM20.2594 120.434H26.6854C27.5494 120.434 28.1794 120.65 28.5754 121.082C29.0074 121.478 29.2234 122.126 29.2234 123.026V136.148C29.2234 137.048 29.0074 137.714 28.5754 138.146C28.1794 138.578 27.5494 138.794 26.6854 138.794H20.2594V120.434ZM21.7174 128.912C21.7174 128.444 21.6454 128.048 21.5014 127.724C21.3574 127.4 21.1234 127.166 20.7994 127.022V138.254H21.7174V128.912Z" fill="white"/>
<path d="M59.1234 132.638V134.312H80.1834V132.638C80.1834 131.666 80.0934 130.766 79.9134 129.938C79.7694 129.11 79.5714 128.336 79.3194 127.616L75.5934 118.814C75.1974 117.878 74.7834 117.104 74.3514 116.492C73.9194 115.844 73.1994 115.52 72.1914 115.52H66.8994C65.8194 115.52 65.0634 115.844 64.6314 116.492C64.1994 117.104 63.8034 117.86 63.4434 118.76L59.9874 127.616C59.7354 128.336 59.5194 129.11 59.3394 129.938C59.1954 130.766 59.1234 131.666 59.1234 132.638ZM67.7634 121.46C67.9074 121.136 68.0514 120.902 68.1954 120.758C68.3754 120.614 68.5734 120.542 68.7894 120.542H70.1394C70.3554 120.542 70.5354 120.614 70.6794 120.758C70.8594 120.902 71.0214 121.136 71.1654 121.46L73.7034 129.668H65.2254L67.7634 121.46ZM80.1834 144.14V134.852H59.1234V144.14H58.5834V132.638C58.5834 131.63 58.6554 130.712 58.7994 129.884C58.9794 129.02 59.2134 128.192 59.5014 127.4L62.9574 118.544C63.3534 117.536 63.8034 116.69 64.3074 116.006C64.8114 115.322 65.6754 114.98 66.8994 114.98H72.1914C73.3794 114.98 74.2074 115.322 74.6754 116.006C75.1794 116.69 75.6474 117.554 76.0794 118.598L79.8054 127.4C80.0934 128.192 80.3094 129.02 80.4534 129.884C80.6334 130.712 80.7234 131.63 80.7234 132.638V144.14H80.1834ZM64.6854 147.056V139.496H74.2434V147.056C74.2434 147.74 74.4054 148.244 74.7294 148.568C75.0894 148.856 75.6294 149 76.3494 149H84.5034C85.1874 149 85.6734 148.856 85.9614 148.568C86.2854 148.244 86.4474 147.74 86.4474 147.056V132.8C86.4474 131.72 86.2674 130.478 85.9074 129.074C85.5834 127.67 85.0614 126.032 84.3414 124.16L79.6434 111.902C79.4274 111.29 79.0854 110.84 78.6174 110.552C78.1854 110.264 77.6274 110.12 76.9434 110.12H62.4174C61.6974 110.12 61.1034 110.264 60.6354 110.552C60.2034 110.84 59.8794 111.29 59.6634 111.902L54.9654 124.16C54.2454 126.032 53.7054 127.67 53.3454 129.074C53.0214 130.478 52.8594 131.72 52.8594 132.8V147.056C52.8594 147.74 53.0034 148.244 53.2914 148.568C53.6154 148.856 54.1194 149 54.8034 149H62.7414C63.4254 149 63.9114 148.856 64.1994 148.568C64.5234 148.244 64.6854 147.74 64.6854 147.056ZM57.4494 154.886C57.3054 155.03 57.0714 155.156 56.7474 155.264C56.4594 155.372 56.1354 155.426 55.7754 155.426H47.8374C46.9734 155.426 46.3434 155.228 45.9474 154.832C45.5514 154.436 45.3534 153.806 45.3534 152.942V138.686C45.3534 137.57 45.5154 136.31 45.8394 134.906C46.1994 133.466 46.7574 131.774 47.5134 129.83L52.1574 117.626C52.2654 117.302 52.3914 117.032 52.5354 116.816C52.7154 116.564 52.8954 116.348 53.0754 116.168L53.1294 116.114L60.0414 110.336C60.3294 110.084 60.6714 109.904 61.0674 109.796C61.4634 109.652 61.9134 109.58 62.4174 109.58H76.9434C77.7714 109.58 78.4374 109.76 78.9414 110.12C79.4814 110.444 79.8774 110.966 80.1294 111.686L84.8274 123.944C85.5834 125.888 86.1234 127.58 86.4474 129.02C86.8074 130.424 86.9874 131.684 86.9874 132.8V147.056C86.9874 147.524 86.9154 147.92 86.7714 148.244C86.6634 148.568 86.4834 148.838 86.2314 149.054L79.2114 154.886C79.0674 155.03 78.8334 155.156 78.5094 155.264C78.2214 155.372 77.8974 155.426 77.5374 155.426H69.3834C68.4834 155.426 67.8174 155.21 67.3854 154.778C66.9534 154.382 66.7374 153.77 66.7374 152.942V145.922H65.2254V147.056C65.2254 147.524 65.1534 147.92 65.0094 148.244C64.9014 148.568 64.7214 148.838 64.4694 149.054L57.4494 154.886Z" fill="white"/>
<path d="M107.726 155.426H98.9775C98.1135 155.426 97.4835 155.228 97.0875 154.832C96.6915 154.436 96.4935 153.806 96.4935 152.942V126.968H89.0955C88.2315 126.968 87.6015 126.77 87.2055 126.374C86.8095 125.978 86.6115 125.348 86.6115 124.484V117.95C86.6115 117.482 86.6655 117.086 86.7735 116.762C86.9175 116.438 87.1155 116.168 87.3675 115.952L94.3335 110.066C94.5135 109.922 94.7475 109.814 95.0355 109.742C95.3595 109.634 95.7015 109.58 96.0615 109.58H124.574C125.438 109.58 126.067 109.778 126.464 110.174C126.86 110.57 127.058 111.2 127.058 112.064V118.598C127.058 119.066 126.985 119.462 126.841 119.786C126.734 120.11 126.553 120.38 126.301 120.596L119.282 126.428C119.138 126.572 118.903 126.698 118.579 126.806C118.291 126.914 117.967 126.968 117.607 126.968H117.176V147.056C117.176 147.524 117.104 147.92 116.96 148.244C116.852 148.568 116.672 148.838 116.42 149.054L109.4 154.886C109.256 155.03 109.022 155.156 108.698 155.264C108.41 155.372 108.086 155.426 107.726 155.426ZM114.692 149C115.376 149 115.861 148.856 116.149 148.568C116.473 148.244 116.635 147.74 116.635 147.056V120.542H124.574C125.258 120.542 125.744 120.398 126.032 120.11C126.356 119.786 126.518 119.282 126.518 118.598V112.064C126.518 111.38 126.356 110.894 126.032 110.606C125.744 110.282 125.258 110.12 124.574 110.12H96.0615C95.3775 110.12 94.8735 110.282 94.5495 110.606C94.2615 110.894 94.1175 111.38 94.1175 112.064V118.598C94.1175 119.282 94.2615 119.786 94.5495 120.11C94.8735 120.398 95.3775 120.542 96.0615 120.542H104V147.056C104 147.74 104.144 148.244 104.432 148.568C104.756 148.856 105.26 149 105.944 149H114.692ZM110.048 144.14V115.52H98.9775V114.98H121.658V115.52H110.588V144.14H110.048Z" fill="white"/>
<path d="M154.266 155.426H131.262C130.398 155.426 129.768 155.228 129.372 154.832C128.976 154.436 128.778 153.806 128.778 152.942V146.516C128.778 146.048 128.832 145.652 128.94 145.328C129.084 145.004 129.282 144.734 129.534 144.518L136.068 139.01V126.968H131.262C130.398 126.968 129.768 126.77 129.372 126.374C128.976 125.978 128.778 125.348 128.778 124.484V117.95C128.778 117.482 128.832 117.086 128.94 116.762C129.084 116.438 129.282 116.168 129.534 115.952L136.5 110.066C136.68 109.922 136.914 109.814 137.202 109.742C137.526 109.634 137.868 109.58 138.228 109.58H161.232C162.096 109.58 162.726 109.778 163.122 110.174C163.518 110.57 163.716 111.2 163.716 112.064V118.598C163.716 119.066 163.644 119.462 163.5 119.786C163.392 120.11 163.212 120.38 162.96 120.596L156.534 125.996V138.146H161.232C162.096 138.146 162.726 138.344 163.122 138.74C163.518 139.136 163.716 139.766 163.716 140.63V147.056C163.716 147.524 163.644 147.92 163.5 148.244C163.392 148.568 163.212 148.838 162.96 149.054L155.94 154.886C155.796 155.03 155.562 155.156 155.238 155.264C154.95 155.372 154.626 155.426 154.266 155.426ZM138.228 149H161.232C161.916 149 162.402 148.856 162.69 148.568C163.014 148.244 163.176 147.74 163.176 147.056V140.63C163.176 139.946 163.014 139.46 162.69 139.172C162.402 138.848 161.916 138.686 161.232 138.686H155.994V120.542H161.232C161.916 120.542 162.402 120.398 162.69 120.11C163.014 119.786 163.176 119.282 163.176 118.598V112.064C163.176 111.38 163.014 110.894 162.69 110.606C162.402 110.282 161.916 110.12 161.232 110.12H138.228C137.544 110.12 137.04 110.282 136.716 110.606C136.428 110.894 136.284 111.38 136.284 112.064V118.598C136.284 119.282 136.428 119.786 136.716 120.11C137.04 120.398 137.544 120.542 138.228 120.542H143.574V138.686H138.228C137.544 138.686 137.04 138.848 136.716 139.172C136.428 139.46 136.284 139.946 136.284 140.63V147.056C136.284 147.74 136.428 148.244 136.716 148.568C137.04 148.856 137.544 149 138.228 149ZM158.316 144.14H141.144V143.6H149.514V115.52H141.144V114.98H158.316V115.52H150.054V143.6H158.316V144.14Z" fill="white"/>
<path d="M182.35 115.412L202.222 137.768V114.98H202.762V144.14H202.222V138.578L181.81 115.682C181.774 115.646 181.72 115.61 181.648 115.574C181.612 115.538 181.576 115.52 181.54 115.52C181.504 115.52 181.468 115.538 181.432 115.574C181.432 115.61 181.432 115.646 181.432 115.682V144.14H180.892V115.574C180.892 115.358 180.964 115.196 181.108 115.088C181.252 114.98 181.396 114.926 181.54 114.926C181.684 114.926 181.81 114.962 181.918 115.034C182.026 115.106 182.17 115.232 182.35 115.412ZM185.266 149C185.95 149 186.436 148.856 186.724 148.568C187.048 148.244 187.21 147.74 187.21 147.056V129.236L196.444 140.414V147.056C196.444 147.74 196.588 148.244 196.876 148.568C197.2 148.856 197.704 149 198.388 149H206.488C207.172 149 207.658 148.856 207.946 148.568C208.27 148.244 208.432 147.74 208.432 147.056V112.064C208.432 111.38 208.27 110.894 207.946 110.606C207.658 110.282 207.172 110.12 206.488 110.12H198.388C197.704 110.12 197.2 110.282 196.876 110.606C196.588 110.894 196.444 111.38 196.444 112.064V123.566L185.968 111.578C185.5 111.038 185.014 110.66 184.51 110.444C184.042 110.228 183.466 110.12 182.782 110.12H177.166C176.482 110.12 175.978 110.282 175.654 110.606C175.366 110.894 175.222 111.38 175.222 112.064V147.056C175.222 147.74 175.366 148.244 175.654 148.568C175.978 148.856 176.482 149 177.166 149H185.266ZM186.994 149.054L179.974 154.886C179.83 155.03 179.596 155.156 179.272 155.264C178.984 155.372 178.66 155.426 178.3 155.426H170.2C169.336 155.426 168.706 155.228 168.31 154.832C167.914 154.436 167.716 153.806 167.716 152.942V117.95C167.716 117.482 167.77 117.086 167.878 116.762C168.022 116.438 168.22 116.168 168.472 115.952L175.438 110.066C175.618 109.922 175.852 109.814 176.14 109.742C176.464 109.634 176.806 109.58 177.166 109.58H182.782C183.574 109.58 184.24 109.706 184.78 109.958C185.32 110.21 185.86 110.624 186.4 111.2L190.126 115.52L196.66 110.066C196.84 109.922 197.074 109.814 197.362 109.742C197.686 109.634 198.028 109.58 198.388 109.58H206.488C207.352 109.58 207.982 109.778 208.378 110.174C208.774 110.57 208.972 111.2 208.972 112.064V147.056C208.972 147.524 208.9 147.92 208.756 148.244C208.648 148.568 208.468 148.838 208.216 149.054L201.196 154.886C201.052 155.03 200.818 155.156 200.494 155.264C200.206 155.372 199.882 155.426 199.522 155.426H191.422C190.558 155.426 189.928 155.228 189.532 154.832C189.136 154.436 188.938 153.806 188.938 152.942V146.516L187.75 145.058V147.056C187.75 147.524 187.678 147.92 187.534 148.244C187.426 148.568 187.246 148.838 186.994 149.054Z" fill="white"/>
<path d="M243.993 155.426H226.983C222.267 155.426 218.775 154.202 216.507 151.754C214.275 149.306 213.159 146.138 213.159 142.25V127.022C213.159 125.042 213.447 123.332 214.023 121.892C214.599 120.452 215.445 119.246 216.561 118.274L223.527 112.388C224.643 111.452 226.065 110.75 227.793 110.282C229.557 109.814 231.609 109.58 233.949 109.58H247.449C248.313 109.58 248.943 109.778 249.339 110.174C249.735 110.57 249.933 111.2 249.933 112.064V118.598C249.933 119.066 249.861 119.462 249.717 119.786C249.609 120.11 249.429 120.38 249.177 120.596L242.157 126.428C242.013 126.572 241.779 126.698 241.455 126.806C241.167 126.914 240.843 126.968 240.483 126.968H233.463V134.744C233.499 134.672 233.553 134.6 233.625 134.528C233.733 134.42 233.823 134.33 233.895 134.258L240.861 128.372C241.041 128.228 241.275 128.12 241.563 128.048C241.887 127.94 242.229 127.886 242.589 127.886H250.959C251.823 127.886 252.453 128.084 252.849 128.48C253.245 128.876 253.443 129.506 253.443 130.37V147.056C253.443 147.524 253.371 147.92 253.227 148.244C253.119 148.568 252.939 148.838 252.687 149.054L245.667 154.886C245.523 155.03 245.289 155.156 244.965 155.264C244.677 155.372 244.353 155.426 243.993 155.426ZM250.959 149C251.643 149 252.129 148.856 252.417 148.568C252.741 148.244 252.903 147.74 252.903 147.056V130.37C252.903 129.686 252.741 129.2 252.417 128.912C252.129 128.588 251.643 128.426 250.959 128.426H242.589C241.905 128.426 241.401 128.588 241.077 128.912C240.789 129.2 240.645 129.686 240.645 130.37V138.794H235.407C234.579 138.794 233.949 138.578 233.517 138.146C233.121 137.714 232.923 137.048 232.923 136.148V123.242C232.923 122.342 233.193 121.676 233.733 121.244C234.273 120.776 235.101 120.542 236.217 120.542H247.449C248.133 120.542 248.619 120.398 248.907 120.11C249.231 119.786 249.393 119.282 249.393 118.598V112.064C249.393 111.38 249.231 110.894 248.907 110.606C248.619 110.282 248.133 110.12 247.449 110.12H233.949C229.449 110.12 226.101 111.02 223.905 112.82C221.745 114.62 220.665 117.392 220.665 121.136V137.984C220.665 141.728 221.745 144.5 223.905 146.3C226.101 148.1 229.449 149 233.949 149H250.959ZM236.271 144.14C234.291 144.14 232.671 144.014 231.411 143.762C230.151 143.51 229.161 143.114 228.441 142.574C227.721 141.998 227.217 141.278 226.929 140.414C226.677 139.514 226.551 138.434 226.551 137.174V122.054C226.551 119.498 227.127 117.68 228.279 116.6C229.431 115.52 231.735 114.98 235.191 114.98H244.533V115.52H235.191C232.023 115.52 229.881 116.024 228.765 117.032C227.649 118.004 227.091 119.678 227.091 122.054V137.174C227.091 139.514 227.703 141.17 228.927 142.142C230.187 143.114 232.635 143.6 236.271 143.6H246.477V133.286H247.017V144.14H236.271Z" fill="white"/>
</g>
</svg>
