<svg width="399" height="165" viewBox="0 0 399 165" fill="none" xmlns="http://www.w3.org/2000/svg">
<g id="Focus Blind Dating" filter="url(#filter0_d_3_2)">
<path d="M108.212 52.426H99.8417C98.9777 52.426 98.3477 52.228 97.9517 51.832C97.5557 51.436 97.3577 50.806 97.3577 49.942V14.95C97.3577 14.482 97.4117 14.086 97.5197 13.762C97.6637 13.438 97.8617 13.168 98.1137 12.952L105.08 7.066C105.26 6.922 105.494 6.814 105.782 6.742C106.106 6.634 106.448 6.58 106.808 6.58H130.892C131.756 6.58 132.386 6.778 132.782 7.174C133.178 7.57 133.376 8.2 133.376 9.064V15.49C133.376 15.958 133.304 16.354 133.16 16.678C133.052 17.002 132.872 17.272 132.62 17.488L126.572 22.51C127.4 22.51 128.012 22.708 128.408 23.104C128.804 23.5 129.002 24.13 129.002 24.994V31.474C129.002 31.942 128.93 32.338 128.786 32.662C128.678 32.986 128.498 33.256 128.246 33.472L121.226 39.304C121.082 39.448 120.848 39.574 120.524 39.682C120.236 39.79 119.912 39.844 119.552 39.844H117.662V44.056C117.662 44.524 117.59 44.92 117.446 45.244C117.338 45.568 117.158 45.838 116.906 46.054L109.886 51.886C109.742 52.03 109.508 52.156 109.184 52.264C108.896 52.372 108.572 52.426 108.212 52.426ZM115.178 46C115.862 46 116.348 45.856 116.636 45.568C116.96 45.244 117.122 44.74 117.122 44.056V33.418H126.518C127.202 33.418 127.688 33.274 127.976 32.986C128.3 32.662 128.462 32.158 128.462 31.474V24.994C128.462 24.31 128.3 23.824 127.976 23.536C127.688 23.212 127.202 23.05 126.518 23.05H117.122V17.434H130.892C131.576 17.434 132.062 17.29 132.35 17.002C132.674 16.678 132.836 16.174 132.836 15.49V9.064C132.836 8.38 132.674 7.894 132.35 7.606C132.062 7.282 131.576 7.12 130.892 7.12H106.808C106.124 7.12 105.62 7.282 105.296 7.606C105.008 7.894 104.864 8.38 104.864 9.064V44.056C104.864 44.74 105.008 45.244 105.296 45.568C105.62 45.856 106.124 46 106.808 46H115.178ZM110.75 41.14V11.98H127.976V12.52H111.29V27.964H123.602V28.504H111.29V41.14H110.75ZM166.634 49.834C165.374 50.914 163.61 51.742 161.342 52.318C159.074 52.93 156.158 53.236 152.594 53.236C149.066 53.236 146.168 52.858 143.9 52.102C141.668 51.382 139.904 50.41 138.608 49.186C137.348 47.962 136.466 46.558 135.962 44.974C135.494 43.39 135.26 41.752 135.26 40.06V23.266C135.26 21.61 135.494 20.08 135.962 18.676C136.43 17.236 137.276 16.012 138.5 15.004L145.52 9.172C146.78 8.092 148.526 7.264 150.758 6.688C153.026 6.076 155.96 5.77 159.56 5.77C163.088 5.77 165.968 6.058 168.2 6.634C170.468 7.21 172.232 8.02 173.492 9.064C174.788 10.072 175.67 11.296 176.138 12.736C176.606 14.14 176.84 15.688 176.84 17.38V35.794C176.84 37.45 176.606 38.98 176.138 40.384C175.67 41.788 174.824 42.994 173.6 44.002L166.634 49.834ZM176.3 35.794V17.38C176.3 15.724 176.048 14.23 175.544 12.898C175.076 11.53 174.212 10.36 172.952 9.388C171.728 8.416 170.018 7.66 167.822 7.12C165.662 6.58 162.908 6.31 159.56 6.31C156.212 6.31 153.44 6.58 151.244 7.12C149.048 7.66 147.32 8.416 146.06 9.388C144.836 10.36 143.972 11.53 143.468 12.898C143 14.23 142.766 15.724 142.766 17.38V35.794C142.766 37.45 143 38.962 143.468 40.33C143.972 41.662 144.836 42.814 146.06 43.786C147.32 44.722 149.048 45.46 151.244 46C153.44 46.54 156.212 46.81 159.56 46.81C162.908 46.81 165.662 46.54 167.822 46C170.018 45.46 171.728 44.722 172.952 43.786C174.212 42.814 175.076 41.662 175.544 40.33C176.048 38.962 176.3 37.45 176.3 35.794ZM170.414 34.552C170.414 36.712 169.64 38.476 168.092 39.844C166.544 41.176 163.664 41.842 159.452 41.842C155.24 41.842 152.378 41.176 150.866 39.844C149.354 38.476 148.598 36.712 148.598 34.552V18.622C148.598 16.462 149.354 14.716 150.866 13.384C152.378 12.016 155.24 11.332 159.452 11.332C163.664 11.332 166.544 12.016 168.092 13.384C169.64 14.716 170.414 16.462 170.414 18.622V34.552ZM149.138 34.552C149.138 36.568 149.858 38.206 151.298 39.466C152.738 40.69 155.456 41.302 159.452 41.302C163.448 41.302 166.184 40.69 167.66 39.466C169.136 38.206 169.874 36.568 169.874 34.552V18.622C169.874 16.606 169.136 14.986 167.66 13.762C166.184 12.502 163.448 11.872 159.452 11.872C155.456 11.872 152.738 12.502 151.298 13.762C149.858 14.986 149.138 16.606 149.138 18.622V34.552ZM155.024 33.85V19.324C155.024 18.64 155.294 18.064 155.834 17.596C156.374 17.092 157.616 16.84 159.56 16.84C161.504 16.84 162.746 17.092 163.286 17.596C163.826 18.064 164.096 18.64 164.096 19.324V33.85C164.096 34.57 163.826 35.182 163.286 35.686C162.746 36.154 161.504 36.388 159.56 36.388C157.616 36.388 156.374 36.154 155.834 35.686C155.294 35.182 155.024 34.57 155.024 33.85ZM155.564 33.85C155.564 34.21 155.636 34.534 155.78 34.822C155.924 35.074 156.194 35.29 156.59 35.47V25.21C156.59 24.85 156.518 24.544 156.374 24.292C156.23 24.004 155.96 23.788 155.564 23.644V33.85ZM207.453 52.426H194.277C189.561 52.426 186.069 51.202 183.801 48.754C181.569 46.306 180.453 43.138 180.453 39.25V24.076C180.453 22.096 180.741 20.386 181.317 18.946C181.893 17.47 182.739 16.246 183.855 15.274L190.875 9.388C191.991 8.452 193.413 7.75 195.141 7.282C196.869 6.814 198.903 6.58 201.243 6.58H214.419C215.283 6.58 215.913 6.778 216.309 7.174C216.705 7.57 216.903 8.2 216.903 9.064V15.598C216.903 16.066 216.831 16.462 216.687 16.786C216.579 17.11 216.399 17.38 216.147 17.596L209.127 23.428C208.983 23.572 208.749 23.698 208.425 23.806C208.137 23.914 207.813 23.968 207.453 23.968H200.811V33.094C200.811 33.85 201.045 34.39 201.513 34.714C201.981 35.002 202.665 35.146 203.565 35.146H214.419C215.283 35.146 215.913 35.344 216.309 35.74C216.705 36.136 216.903 36.766 216.903 37.63V44.056C216.903 44.524 216.831 44.92 216.687 45.244C216.579 45.568 216.399 45.838 216.147 46.054L209.127 51.886C208.983 52.03 208.749 52.156 208.425 52.264C208.137 52.372 207.813 52.426 207.453 52.426ZM214.419 46C215.103 46 215.589 45.856 215.877 45.568C216.201 45.244 216.363 44.74 216.363 44.056V37.63C216.363 36.946 216.201 36.46 215.877 36.172C215.589 35.848 215.103 35.686 214.419 35.686H203.565C202.449 35.686 201.621 35.488 201.081 35.092C200.541 34.66 200.271 33.994 200.271 33.094V20.242C200.271 19.342 200.541 18.676 201.081 18.244C201.621 17.776 202.449 17.542 203.565 17.542H214.419C215.103 17.542 215.589 17.398 215.877 17.11C216.201 16.786 216.363 16.282 216.363 15.598V9.064C216.363 8.38 216.201 7.894 215.877 7.606C215.589 7.282 215.103 7.12 214.419 7.12H201.243C196.743 7.12 193.395 8.038 191.199 9.874C189.039 11.674 187.959 14.446 187.959 18.19V34.984C187.959 38.728 189.039 41.5 191.199 43.3C193.395 45.1 196.743 46 201.243 46H214.419ZM211.449 40.6V41.14H202.431C198.939 41.14 196.617 40.6 195.465 39.52C194.349 38.44 193.791 36.658 193.791 34.174V19.054C193.791 16.498 194.367 14.68 195.519 13.6C196.671 12.52 198.975 11.98 202.431 11.98H211.449V12.52H202.431C199.263 12.52 197.121 13.024 196.005 14.032C194.889 15.004 194.331 16.678 194.331 19.054V34.174C194.331 36.514 194.871 38.17 195.951 39.142C197.031 40.114 199.191 40.6 202.431 40.6H211.449ZM237.29 53.236C233.798 53.236 230.918 52.858 228.65 52.102C226.418 51.382 224.672 50.41 223.412 49.186C222.152 47.962 221.27 46.558 220.766 44.974C220.298 43.39 220.064 41.752 220.064 40.06V14.95C220.064 14.482 220.118 14.086 220.226 13.762C220.37 13.438 220.568 13.168 220.82 12.952L227.786 7.066C227.966 6.922 228.2 6.814 228.488 6.742C228.812 6.634 229.154 6.58 229.514 6.58H237.992C238.856 6.58 239.486 6.778 239.882 7.174C240.278 7.57 240.476 8.2 240.476 9.064V33.688C240.476 34.012 240.53 34.318 240.638 34.606C240.746 34.858 240.98 35.056 241.34 35.2V14.95C241.34 14.482 241.394 14.086 241.502 13.762C241.61 13.438 241.772 13.186 241.988 13.006L242.042 12.952L249.062 7.066C249.242 6.922 249.476 6.814 249.764 6.742C250.052 6.634 250.394 6.58 250.79 6.58H258.998C259.862 6.58 260.492 6.778 260.888 7.174C261.284 7.57 261.482 8.2 261.482 9.064V35.794C261.482 37.45 261.248 38.98 260.78 40.384C260.312 41.788 259.466 42.994 258.242 44.002L251.222 49.834C249.962 50.914 248.216 51.742 245.984 52.318C243.752 52.93 240.854 53.236 237.29 53.236ZM260.942 35.794V9.064C260.942 8.38 260.78 7.894 260.456 7.606C260.168 7.282 259.682 7.12 258.998 7.12H250.79C250.106 7.12 249.602 7.282 249.278 7.606C248.99 7.894 248.846 8.38 248.846 9.064V33.688C248.846 34.408 248.576 35.02 248.036 35.524C247.496 35.992 246.272 36.226 244.364 36.226C242.492 36.226 241.286 35.992 240.746 35.524C240.206 35.02 239.936 34.408 239.936 33.688V9.064C239.936 8.38 239.774 7.894 239.45 7.606C239.162 7.282 238.676 7.12 237.992 7.12H229.514C228.83 7.12 228.326 7.282 228.002 7.606C227.714 7.894 227.57 8.38 227.57 9.064V35.794C227.57 37.45 227.804 38.962 228.272 40.33C228.776 41.662 229.64 42.814 230.864 43.786C232.124 44.722 233.834 45.46 235.994 46C238.154 46.54 240.908 46.81 244.256 46.81C247.604 46.81 250.358 46.54 252.518 46C254.678 45.46 256.37 44.722 257.594 43.786C258.854 42.814 259.718 41.662 260.186 40.33C260.69 38.962 260.942 37.45 260.942 35.794ZM233.51 11.98H234.05V34.498C234.05 36.514 234.752 38.152 236.156 39.412C237.596 40.636 240.314 41.248 244.31 41.248C248.306 41.248 251.024 40.636 252.464 39.412C253.904 38.152 254.624 36.514 254.624 34.498V11.98H255.164V34.498C255.164 36.658 254.408 38.422 252.896 39.79C251.384 41.122 248.522 41.788 244.31 41.788C240.098 41.788 237.236 41.122 235.724 39.79C234.248 38.422 233.51 36.658 233.51 34.498V11.98ZM267.514 52.426C266.65 52.426 266.02 52.228 265.624 51.832C265.228 51.436 265.03 50.806 265.03 49.942V43.624C265.03 43.156 265.084 42.76 265.192 42.436C265.336 42.112 265.534 41.842 265.786 41.626L271.186 37.09C269.278 36.514 267.766 35.542 266.65 34.174C265.57 32.77 265.03 30.772 265.03 28.18V22.51C265.03 20.89 265.3 19.45 265.84 18.19C266.38 16.93 267.154 15.868 268.162 15.004L275.182 9.118C276.154 8.326 277.36 7.714 278.8 7.282C280.24 6.814 281.878 6.58 283.714 6.58H298.834C299.698 6.58 300.328 6.778 300.724 7.174C301.12 7.57 301.318 8.2 301.318 9.064V15.49C301.318 15.958 301.246 16.354 301.102 16.678C300.994 17.002 300.814 17.272 300.562 17.488L295.702 21.538C297.97 22.042 299.788 22.996 301.156 24.4C302.56 25.768 303.262 27.91 303.262 30.826V36.496C303.262 38.116 302.992 39.556 302.452 40.816C301.912 42.076 301.12 43.138 300.076 44.002L293.11 49.834C292.102 50.662 290.878 51.292 289.438 51.724C287.998 52.192 286.378 52.426 284.578 52.426H267.514ZM291.544 46C295 46 297.718 45.19 299.698 43.57C301.714 41.914 302.722 39.556 302.722 36.496V30.826C302.722 27.802 301.948 25.642 300.4 24.346C298.852 23.05 296.818 22.222 294.298 21.862L286.252 20.782C285.784 20.746 285.424 20.566 285.172 20.242C284.92 19.918 284.794 19.522 284.794 19.054C284.794 18.586 284.92 18.208 285.172 17.92C285.424 17.596 285.784 17.434 286.252 17.434H298.834C299.518 17.434 300.004 17.29 300.292 17.002C300.616 16.678 300.778 16.174 300.778 15.49V9.064C300.778 8.38 300.616 7.894 300.292 7.606C300.004 7.282 299.518 7.12 298.834 7.12H283.714C280.222 7.12 277.486 7.948 275.506 9.604C273.526 11.224 272.536 13.564 272.536 16.624V22.294C272.536 25.318 273.292 27.478 274.804 28.774C276.352 30.07 278.386 30.898 280.906 31.258L289.006 32.392C289.474 32.428 289.816 32.59 290.032 32.878C290.284 33.166 290.41 33.616 290.41 34.228C290.41 34.66 290.284 35.038 290.032 35.362C289.816 35.65 289.474 35.794 289.006 35.794H274.48C273.796 35.794 273.292 35.956 272.968 36.28C272.68 36.568 272.536 37.054 272.536 37.738V44.056C272.536 44.74 272.68 45.244 272.968 45.568C273.292 45.856 273.796 46 274.48 46H291.544ZM295.918 11.98V12.52H283.93C282.418 12.52 281.212 12.934 280.312 13.762C279.412 14.59 278.962 15.634 278.962 16.894V21.322C278.962 22.582 279.214 23.464 279.718 23.968C280.222 24.472 280.888 24.796 281.716 24.94L293.11 27.262C294.19 27.478 295.072 27.946 295.756 28.666C296.476 29.386 296.836 30.682 296.836 32.554V35.686C296.836 37.27 296.296 38.584 295.216 39.628C294.136 40.636 292.678 41.14 290.842 41.14H277.396V40.6H290.842C292.498 40.6 293.812 40.15 294.784 39.25C295.792 38.314 296.296 37.126 296.296 35.686V32.554C296.296 30.862 295.99 29.71 295.378 29.098C294.802 28.45 294.01 28.018 293.002 27.802L281.608 25.48C280.672 25.3 279.898 24.94 279.286 24.4C278.71 23.824 278.422 22.798 278.422 21.322V16.894C278.422 15.454 278.926 14.284 279.934 13.384C280.942 12.448 282.274 11.98 283.93 11.98H295.918ZM95.7812 106.426C94.9172 106.426 94.2872 106.228 93.8912 105.832C93.4952 105.436 93.2972 104.806 93.2972 103.942V68.95C93.2972 68.482 93.3512 68.086 93.4592 67.762C93.6032 67.438 93.8012 67.168 94.0532 66.952L101.019 61.066C101.199 60.922 101.433 60.814 101.721 60.742C102.045 60.634 102.387 60.58 102.747 60.58H119.973C123.717 60.58 126.471 61.318 128.235 62.794C129.999 64.234 130.881 66.43 130.881 69.382V71.974C130.881 73.234 130.701 74.314 130.341 75.214C130.017 76.114 129.513 76.834 128.829 77.374L128.667 77.482C130.611 77.914 132.069 78.85 133.041 80.29C134.013 81.694 134.499 83.656 134.499 86.176V91.144C134.499 92.764 134.265 94.168 133.797 95.356C133.329 96.508 132.627 97.48 131.691 98.272L124.725 104.158C123.825 104.914 122.691 105.472 121.323 105.832C119.955 106.228 118.353 106.426 116.517 106.426H95.7812ZM123.483 100C127.047 100 129.675 99.28 131.367 97.84C133.095 96.4 133.959 94.168 133.959 91.144V86.176C133.959 83.548 133.401 81.55 132.285 80.182C131.169 78.814 129.459 78.022 127.155 77.806C128.235 77.338 129.027 76.636 129.531 75.7C130.071 74.728 130.341 73.486 130.341 71.974V69.382C130.341 66.574 129.495 64.504 127.803 63.172C126.111 61.804 123.501 61.12 119.973 61.12H102.747C102.063 61.12 101.559 61.282 101.235 61.606C100.947 61.894 100.803 62.38 100.803 63.064V98.056C100.803 98.74 100.947 99.244 101.235 99.568C101.559 99.856 102.063 100 102.747 100H123.483ZM121.323 95.14H106.797V65.98H117.759C119.235 65.98 120.441 66.142 121.377 66.466C122.313 66.754 123.033 67.168 123.537 67.708C124.041 68.212 124.383 68.806 124.563 69.49C124.743 70.174 124.833 70.912 124.833 71.704V75.16C124.833 76.24 124.635 77.23 124.239 78.13C123.879 79.03 122.925 79.678 121.377 80.074C122.853 80.074 124.059 80.236 124.995 80.56C125.931 80.848 126.651 81.28 127.155 81.856C127.659 82.396 127.983 83.044 128.127 83.8C128.307 84.556 128.397 85.384 128.397 86.284V89.74C128.397 90.532 128.307 91.27 128.127 91.954C127.947 92.602 127.605 93.16 127.101 93.628C126.633 94.096 125.931 94.474 124.995 94.762C124.059 95.014 122.835 95.14 121.323 95.14ZM117.759 66.52H107.337V80.074H117.759C119.235 80.074 120.405 79.948 121.269 79.696C122.133 79.408 122.781 79.048 123.213 78.616C123.681 78.148 123.969 77.626 124.077 77.05C124.221 76.438 124.293 75.808 124.293 75.16V71.704C124.293 70.264 123.879 69.04 123.051 68.032C122.223 67.024 120.459 66.52 117.759 66.52ZM112.953 70.3H117.543C118.227 70.3 118.731 70.48 119.055 70.84C119.415 71.2 119.595 71.74 119.595 72.46V73.972C119.595 74.692 119.415 75.232 119.055 75.592C118.731 75.952 118.227 76.132 117.543 76.132H112.953V70.3ZM121.377 80.614H107.337V94.6H121.323C124.023 94.6 125.787 94.168 126.615 93.304C127.443 92.404 127.857 91.216 127.857 89.74V86.284C127.857 84.664 127.443 83.314 126.615 82.234C125.823 81.154 124.077 80.614 121.377 80.614ZM112.953 84.448H119.973C120.657 84.448 121.161 84.628 121.485 84.988C121.845 85.312 122.025 85.834 122.025 86.554V88.66C122.025 89.38 121.845 89.92 121.485 90.28C121.161 90.64 120.657 90.82 119.973 90.82H112.953V84.448ZM167.828 106.426H140.342C139.478 106.426 138.848 106.228 138.452 105.832C138.056 105.436 137.858 104.806 137.858 103.942V68.95C137.858 68.482 137.912 68.086 138.02 67.762C138.164 67.438 138.362 67.168 138.614 66.952L145.58 61.066C145.76 60.922 145.994 60.814 146.282 60.742C146.606 60.634 146.948 60.58 147.308 60.58H155.678C156.542 60.58 157.172 60.778 157.568 61.174C157.964 61.57 158.162 62.2 158.162 63.064V85.042L158.27 84.934L165.236 79.048C165.416 78.904 165.65 78.796 165.938 78.724C166.262 78.616 166.604 78.562 166.964 78.562H174.794C175.658 78.562 176.288 78.76 176.684 79.156C177.08 79.552 177.278 80.182 177.278 81.046V98.056C177.278 98.524 177.206 98.92 177.062 99.244C176.954 99.568 176.774 99.838 176.522 100.054L169.502 105.886C169.358 106.03 169.124 106.156 168.8 106.264C168.512 106.372 168.188 106.426 167.828 106.426ZM174.794 100C175.478 100 175.964 99.856 176.252 99.568C176.576 99.244 176.738 98.74 176.738 98.056V81.046C176.738 80.362 176.576 79.876 176.252 79.588C175.964 79.264 175.478 79.102 174.794 79.102H166.964C166.28 79.102 165.776 79.264 165.452 79.588C165.164 79.876 165.02 80.362 165.02 81.046V89.794H157.622V63.064C157.622 62.38 157.46 61.894 157.136 61.606C156.848 61.282 156.362 61.12 155.678 61.12H147.308C146.624 61.12 146.12 61.282 145.796 61.606C145.508 61.894 145.364 62.38 145.364 63.064V98.056C145.364 98.74 145.508 99.244 145.796 99.568C146.12 99.856 146.624 100 147.308 100H174.794ZM151.25 95.14V65.98H151.79V94.6H170.582V83.962H171.122V95.14H151.25ZM205.408 106.426H182.404C181.54 106.426 180.91 106.228 180.514 105.832C180.118 105.436 179.92 104.806 179.92 103.942V97.516C179.92 97.048 179.974 96.652 180.082 96.328C180.226 96.004 180.424 95.734 180.676 95.518L187.21 90.01V77.968H182.404C181.54 77.968 180.91 77.77 180.514 77.374C180.118 76.978 179.92 76.348 179.92 75.484V68.95C179.92 68.482 179.974 68.086 180.082 67.762C180.226 67.438 180.424 67.168 180.676 66.952L187.642 61.066C187.822 60.922 188.056 60.814 188.344 60.742C188.668 60.634 189.01 60.58 189.37 60.58H212.374C213.238 60.58 213.868 60.778 214.264 61.174C214.66 61.57 214.858 62.2 214.858 63.064V69.598C214.858 70.066 214.786 70.462 214.642 70.786C214.534 71.11 214.354 71.38 214.102 71.596L207.676 76.996V89.146H212.374C213.238 89.146 213.868 89.344 214.264 89.74C214.66 90.136 214.858 90.766 214.858 91.63V98.056C214.858 98.524 214.786 98.92 214.642 99.244C214.534 99.568 214.354 99.838 214.102 100.054L207.082 105.886C206.938 106.03 206.704 106.156 206.38 106.264C206.092 106.372 205.768 106.426 205.408 106.426ZM189.37 100H212.374C213.058 100 213.544 99.856 213.832 99.568C214.156 99.244 214.318 98.74 214.318 98.056V91.63C214.318 90.946 214.156 90.46 213.832 90.172C213.544 89.848 213.058 89.686 212.374 89.686H207.136V71.542H212.374C213.058 71.542 213.544 71.398 213.832 71.11C214.156 70.786 214.318 70.282 214.318 69.598V63.064C214.318 62.38 214.156 61.894 213.832 61.606C213.544 61.282 213.058 61.12 212.374 61.12H189.37C188.686 61.12 188.182 61.282 187.858 61.606C187.57 61.894 187.426 62.38 187.426 63.064V69.598C187.426 70.282 187.57 70.786 187.858 71.11C188.182 71.398 188.686 71.542 189.37 71.542H194.716V89.686H189.37C188.686 89.686 188.182 89.848 187.858 90.172C187.57 90.46 187.426 90.946 187.426 91.63V98.056C187.426 98.74 187.57 99.244 187.858 99.568C188.182 99.856 188.686 100 189.37 100ZM209.458 95.14H192.286V94.6H200.656V66.52H192.286V65.98H209.458V66.52H201.196V94.6H209.458V95.14ZM233.492 66.412L253.364 88.768V65.98H253.904V95.14H253.364V89.578L232.952 66.682C232.916 66.646 232.862 66.61 232.79 66.574C232.754 66.538 232.718 66.52 232.682 66.52C232.646 66.52 232.61 66.538 232.574 66.574C232.574 66.61 232.574 66.646 232.574 66.682V95.14H232.034V66.574C232.034 66.358 232.106 66.196 232.25 66.088C232.394 65.98 232.538 65.926 232.682 65.926C232.826 65.926 232.952 65.962 233.06 66.034C233.168 66.106 233.312 66.232 233.492 66.412ZM236.408 100C237.092 100 237.578 99.856 237.866 99.568C238.19 99.244 238.352 98.74 238.352 98.056V80.236L247.586 91.414V98.056C247.586 98.74 247.73 99.244 248.018 99.568C248.342 99.856 248.846 100 249.53 100H257.63C258.314 100 258.8 99.856 259.088 99.568C259.412 99.244 259.574 98.74 259.574 98.056V63.064C259.574 62.38 259.412 61.894 259.088 61.606C258.8 61.282 258.314 61.12 257.63 61.12H249.53C248.846 61.12 248.342 61.282 248.018 61.606C247.73 61.894 247.586 62.38 247.586 63.064V74.566L237.11 62.578C236.642 62.038 236.156 61.66 235.652 61.444C235.184 61.228 234.608 61.12 233.924 61.12H228.308C227.624 61.12 227.12 61.282 226.796 61.606C226.508 61.894 226.364 62.38 226.364 63.064V98.056C226.364 98.74 226.508 99.244 226.796 99.568C227.12 99.856 227.624 100 228.308 100H236.408ZM238.136 100.054L231.116 105.886C230.972 106.03 230.738 106.156 230.414 106.264C230.126 106.372 229.802 106.426 229.442 106.426H221.342C220.478 106.426 219.848 106.228 219.452 105.832C219.056 105.436 218.858 104.806 218.858 103.942V68.95C218.858 68.482 218.912 68.086 219.02 67.762C219.164 67.438 219.362 67.168 219.614 66.952L226.58 61.066C226.76 60.922 226.994 60.814 227.282 60.742C227.606 60.634 227.948 60.58 228.308 60.58H233.924C234.716 60.58 235.382 60.706 235.922 60.958C236.462 61.21 237.002 61.624 237.542 62.2L241.268 66.52L247.802 61.066C247.982 60.922 248.216 60.814 248.504 60.742C248.828 60.634 249.17 60.58 249.53 60.58H257.63C258.494 60.58 259.124 60.778 259.52 61.174C259.916 61.57 260.114 62.2 260.114 63.064V98.056C260.114 98.524 260.042 98.92 259.898 99.244C259.79 99.568 259.61 99.838 259.358 100.054L252.338 105.886C252.194 106.03 251.96 106.156 251.636 106.264C251.348 106.372 251.024 106.426 250.664 106.426H242.564C241.7 106.426 241.07 106.228 240.674 105.832C240.278 105.436 240.08 104.806 240.08 103.942V97.516L238.892 96.058V98.056C238.892 98.524 238.82 98.92 238.676 99.244C238.568 99.568 238.388 99.838 238.136 100.054ZM295.945 103.564C294.829 104.5 293.407 105.202 291.679 105.67C289.951 106.174 287.917 106.426 285.577 106.426H267.379C266.515 106.426 265.885 106.228 265.489 105.832C265.093 105.436 264.895 104.806 264.895 103.942V68.95C264.895 68.482 264.949 68.086 265.057 67.762C265.201 67.438 265.399 67.168 265.651 66.952L272.617 61.066C272.797 60.922 273.031 60.814 273.319 60.742C273.643 60.634 273.985 60.58 274.345 60.58H292.543C297.259 60.58 300.733 61.534 302.965 63.442C305.233 65.35 306.367 68.248 306.367 72.136V88.984C306.367 90.928 306.079 92.638 305.503 94.114C304.927 95.554 304.081 96.76 302.965 97.732L295.945 103.564ZM292.543 100C297.043 100 300.373 99.1 302.533 97.3C304.729 95.5 305.827 92.728 305.827 88.984V72.136C305.827 68.392 304.729 65.62 302.533 63.82C300.373 62.02 297.043 61.12 292.543 61.12H274.345C273.661 61.12 273.157 61.282 272.833 61.606C272.545 61.894 272.401 62.38 272.401 63.064V98.056C272.401 98.74 272.545 99.244 272.833 99.568C273.157 99.856 273.661 100 274.345 100H292.543ZM278.287 95.14V65.98H291.355C293.191 65.98 294.667 66.178 295.783 66.574C296.935 66.97 297.817 67.51 298.429 68.194C299.041 68.842 299.455 69.634 299.671 70.57C299.887 71.47 299.995 72.442 299.995 73.486V87.796C299.995 88.84 299.887 89.812 299.671 90.712C299.491 91.612 299.095 92.386 298.483 93.034C297.871 93.682 296.989 94.204 295.837 94.6C294.685 94.96 293.191 95.14 291.355 95.14H278.287ZM291.355 66.52H278.827V94.6H291.355C293.083 94.6 294.469 94.438 295.513 94.114C296.593 93.754 297.421 93.286 297.997 92.71C298.573 92.098 298.951 91.378 299.131 90.55C299.347 89.686 299.455 88.768 299.455 87.796V73.486C299.455 72.514 299.347 71.596 299.131 70.732C298.915 69.868 298.519 69.13 297.943 68.518C297.367 67.906 296.539 67.42 295.459 67.06C294.415 66.7 293.047 66.52 291.355 66.52ZM284.659 71.434H291.085C291.949 71.434 292.579 71.65 292.975 72.082C293.407 72.478 293.623 73.126 293.623 74.026V87.148C293.623 88.048 293.407 88.714 292.975 89.146C292.579 89.578 291.949 89.794 291.085 89.794H284.659V71.434ZM286.117 79.912C286.117 79.444 286.045 79.048 285.901 78.724C285.757 78.4 285.523 78.166 285.199 78.022V89.254H286.117V79.912ZM104.545 157.564C103.429 158.5 102.007 159.202 100.279 159.67C98.5514 160.174 96.5174 160.426 94.1774 160.426H75.9794C75.1154 160.426 74.4854 160.228 74.0894 159.832C73.6934 159.436 73.4954 158.806 73.4954 157.942V122.95C73.4954 122.482 73.5494 122.086 73.6574 121.762C73.8014 121.438 73.9994 121.168 74.2514 120.952L81.2174 115.066C81.3974 114.922 81.6314 114.814 81.9194 114.742C82.2434 114.634 82.5854 114.58 82.9454 114.58H101.143C105.859 114.58 109.333 115.534 111.565 117.442C113.833 119.35 114.967 122.248 114.967 126.136V142.984C114.967 144.928 114.679 146.638 114.103 148.114C113.527 149.554 112.681 150.76 111.565 151.732L104.545 157.564ZM101.143 154C105.643 154 108.973 153.1 111.133 151.3C113.329 149.5 114.427 146.728 114.427 142.984V126.136C114.427 122.392 113.329 119.62 111.133 117.82C108.973 116.02 105.643 115.12 101.143 115.12H82.9454C82.2614 115.12 81.7574 115.282 81.4334 115.606C81.1454 115.894 81.0014 116.38 81.0014 117.064V152.056C81.0014 152.74 81.1454 153.244 81.4334 153.568C81.7574 153.856 82.2614 154 82.9454 154H101.143ZM86.8874 149.14V119.98H99.9554C101.791 119.98 103.267 120.178 104.383 120.574C105.535 120.97 106.417 121.51 107.029 122.194C107.641 122.842 108.055 123.634 108.271 124.57C108.487 125.47 108.595 126.442 108.595 127.486V141.796C108.595 142.84 108.487 143.812 108.271 144.712C108.091 145.612 107.695 146.386 107.083 147.034C106.471 147.682 105.589 148.204 104.437 148.6C103.285 148.96 101.791 149.14 99.9554 149.14H86.8874ZM99.9554 120.52H87.4274V148.6H99.9554C101.683 148.6 103.069 148.438 104.113 148.114C105.193 147.754 106.021 147.286 106.597 146.71C107.173 146.098 107.551 145.378 107.731 144.55C107.947 143.686 108.055 142.768 108.055 141.796V127.486C108.055 126.514 107.947 125.596 107.731 124.732C107.515 123.868 107.119 123.13 106.543 122.518C105.967 121.906 105.139 121.42 104.059 121.06C103.015 120.7 101.647 120.52 99.9554 120.52ZM93.2594 125.434H99.6854C100.549 125.434 101.179 125.65 101.575 126.082C102.007 126.478 102.223 127.126 102.223 128.026V141.148C102.223 142.048 102.007 142.714 101.575 143.146C101.179 143.578 100.549 143.794 99.6854 143.794H93.2594V125.434ZM94.7174 133.912C94.7174 133.444 94.6454 133.048 94.5014 132.724C94.3574 132.4 94.1234 132.166 93.7994 132.022V143.254H94.7174V133.912ZM132.123 137.638V139.312H153.183V137.638C153.183 136.666 153.093 135.766 152.913 134.938C152.769 134.11 152.571 133.336 152.319 132.616L148.593 123.814C148.197 122.878 147.783 122.104 147.351 121.492C146.919 120.844 146.199 120.52 145.191 120.52H139.899C138.819 120.52 138.063 120.844 137.631 121.492C137.199 122.104 136.803 122.86 136.443 123.76L132.987 132.616C132.735 133.336 132.519 134.11 132.339 134.938C132.195 135.766 132.123 136.666 132.123 137.638ZM140.763 126.46C140.907 126.136 141.051 125.902 141.195 125.758C141.375 125.614 141.573 125.542 141.789 125.542H143.139C143.355 125.542 143.535 125.614 143.679 125.758C143.859 125.902 144.021 126.136 144.165 126.46L146.703 134.668H138.225L140.763 126.46ZM153.183 149.14V139.852H132.123V149.14H131.583V137.638C131.583 136.63 131.655 135.712 131.799 134.884C131.979 134.02 132.213 133.192 132.501 132.4L135.957 123.544C136.353 122.536 136.803 121.69 137.307 121.006C137.811 120.322 138.675 119.98 139.899 119.98H145.191C146.379 119.98 147.207 120.322 147.675 121.006C148.179 121.69 148.647 122.554 149.079 123.598L152.805 132.4C153.093 133.192 153.309 134.02 153.453 134.884C153.633 135.712 153.723 136.63 153.723 137.638V149.14H153.183ZM137.685 152.056V144.496H147.243V152.056C147.243 152.74 147.405 153.244 147.729 153.568C148.089 153.856 148.629 154 149.349 154H157.503C158.187 154 158.673 153.856 158.961 153.568C159.285 153.244 159.447 152.74 159.447 152.056V137.8C159.447 136.72 159.267 135.478 158.907 134.074C158.583 132.67 158.061 131.032 157.341 129.16L152.643 116.902C152.427 116.29 152.085 115.84 151.617 115.552C151.185 115.264 150.627 115.12 149.943 115.12H135.417C134.697 115.12 134.103 115.264 133.635 115.552C133.203 115.84 132.879 116.29 132.663 116.902L127.965 129.16C127.245 131.032 126.705 132.67 126.345 134.074C126.021 135.478 125.859 136.72 125.859 137.8V152.056C125.859 152.74 126.003 153.244 126.291 153.568C126.615 153.856 127.119 154 127.803 154H135.741C136.425 154 136.911 153.856 137.199 153.568C137.523 153.244 137.685 152.74 137.685 152.056ZM130.449 159.886C130.305 160.03 130.071 160.156 129.747 160.264C129.459 160.372 129.135 160.426 128.775 160.426H120.837C119.973 160.426 119.343 160.228 118.947 159.832C118.551 159.436 118.353 158.806 118.353 157.942V143.686C118.353 142.57 118.515 141.31 118.839 139.906C119.199 138.466 119.757 136.774 120.513 134.83L125.157 122.626C125.265 122.302 125.391 122.032 125.535 121.816C125.715 121.564 125.895 121.348 126.075 121.168L126.129 121.114L133.041 115.336C133.329 115.084 133.671 114.904 134.067 114.796C134.463 114.652 134.913 114.58 135.417 114.58H149.943C150.771 114.58 151.437 114.76 151.941 115.12C152.481 115.444 152.877 115.966 153.129 116.686L157.827 128.944C158.583 130.888 159.123 132.58 159.447 134.02C159.807 135.424 159.987 136.684 159.987 137.8V152.056C159.987 152.524 159.915 152.92 159.771 153.244C159.663 153.568 159.483 153.838 159.231 154.054L152.211 159.886C152.067 160.03 151.833 160.156 151.509 160.264C151.221 160.372 150.897 160.426 150.537 160.426H142.383C141.483 160.426 140.817 160.21 140.385 159.778C139.953 159.382 139.737 158.77 139.737 157.942V150.922H138.225V152.056C138.225 152.524 138.153 152.92 138.009 153.244C137.901 153.568 137.721 153.838 137.469 154.054L130.449 159.886ZM180.726 160.426H171.978C171.114 160.426 170.484 160.228 170.088 159.832C169.692 159.436 169.494 158.806 169.494 157.942V131.968H162.096C161.232 131.968 160.602 131.77 160.206 131.374C159.81 130.978 159.612 130.348 159.612 129.484V122.95C159.612 122.482 159.666 122.086 159.774 121.762C159.918 121.438 160.116 121.168 160.368 120.952L167.334 115.066C167.514 114.922 167.748 114.814 168.036 114.742C168.36 114.634 168.702 114.58 169.062 114.58H197.574C198.438 114.58 199.068 114.778 199.464 115.174C199.86 115.57 200.058 116.2 200.058 117.064V123.598C200.058 124.066 199.986 124.462 199.842 124.786C199.734 125.11 199.554 125.38 199.302 125.596L192.282 131.428C192.138 131.572 191.904 131.698 191.58 131.806C191.292 131.914 190.968 131.968 190.608 131.968H190.176V152.056C190.176 152.524 190.104 152.92 189.96 153.244C189.852 153.568 189.672 153.838 189.42 154.054L182.4 159.886C182.256 160.03 182.022 160.156 181.698 160.264C181.41 160.372 181.086 160.426 180.726 160.426ZM187.692 154C188.376 154 188.862 153.856 189.15 153.568C189.474 153.244 189.636 152.74 189.636 152.056V125.542H197.574C198.258 125.542 198.744 125.398 199.032 125.11C199.356 124.786 199.518 124.282 199.518 123.598V117.064C199.518 116.38 199.356 115.894 199.032 115.606C198.744 115.282 198.258 115.12 197.574 115.12H169.062C168.378 115.12 167.874 115.282 167.55 115.606C167.262 115.894 167.118 116.38 167.118 117.064V123.598C167.118 124.282 167.262 124.786 167.55 125.11C167.874 125.398 168.378 125.542 169.062 125.542H177V152.056C177 152.74 177.144 153.244 177.432 153.568C177.756 153.856 178.26 154 178.944 154H187.692ZM183.048 149.14V120.52H171.978V119.98H194.658V120.52H183.588V149.14H183.048ZM227.266 160.426H204.262C203.398 160.426 202.768 160.228 202.372 159.832C201.976 159.436 201.778 158.806 201.778 157.942V151.516C201.778 151.048 201.832 150.652 201.94 150.328C202.084 150.004 202.282 149.734 202.534 149.518L209.068 144.01V131.968H204.262C203.398 131.968 202.768 131.77 202.372 131.374C201.976 130.978 201.778 130.348 201.778 129.484V122.95C201.778 122.482 201.832 122.086 201.94 121.762C202.084 121.438 202.282 121.168 202.534 120.952L209.5 115.066C209.68 114.922 209.914 114.814 210.202 114.742C210.526 114.634 210.868 114.58 211.228 114.58H234.232C235.096 114.58 235.726 114.778 236.122 115.174C236.518 115.57 236.716 116.2 236.716 117.064V123.598C236.716 124.066 236.644 124.462 236.5 124.786C236.392 125.11 236.212 125.38 235.96 125.596L229.534 130.996V143.146H234.232C235.096 143.146 235.726 143.344 236.122 143.74C236.518 144.136 236.716 144.766 236.716 145.63V152.056C236.716 152.524 236.644 152.92 236.5 153.244C236.392 153.568 236.212 153.838 235.96 154.054L228.94 159.886C228.796 160.03 228.562 160.156 228.238 160.264C227.95 160.372 227.626 160.426 227.266 160.426ZM211.228 154H234.232C234.916 154 235.402 153.856 235.69 153.568C236.014 153.244 236.176 152.74 236.176 152.056V145.63C236.176 144.946 236.014 144.46 235.69 144.172C235.402 143.848 234.916 143.686 234.232 143.686H228.994V125.542H234.232C234.916 125.542 235.402 125.398 235.69 125.11C236.014 124.786 236.176 124.282 236.176 123.598V117.064C236.176 116.38 236.014 115.894 235.69 115.606C235.402 115.282 234.916 115.12 234.232 115.12H211.228C210.544 115.12 210.04 115.282 209.716 115.606C209.428 115.894 209.284 116.38 209.284 117.064V123.598C209.284 124.282 209.428 124.786 209.716 125.11C210.04 125.398 210.544 125.542 211.228 125.542H216.574V143.686H211.228C210.544 143.686 210.04 143.848 209.716 144.172C209.428 144.46 209.284 144.946 209.284 145.63V152.056C209.284 152.74 209.428 153.244 209.716 153.568C210.04 153.856 210.544 154 211.228 154ZM231.316 149.14H214.144V148.6H222.514V120.52H214.144V119.98H231.316V120.52H223.054V148.6H231.316V149.14ZM255.35 120.412L275.222 142.768V119.98H275.762V149.14H275.222V143.578L254.81 120.682C254.774 120.646 254.72 120.61 254.648 120.574C254.612 120.538 254.576 120.52 254.54 120.52C254.504 120.52 254.468 120.538 254.432 120.574C254.432 120.61 254.432 120.646 254.432 120.682V149.14H253.892V120.574C253.892 120.358 253.964 120.196 254.108 120.088C254.252 119.98 254.396 119.926 254.54 119.926C254.684 119.926 254.81 119.962 254.918 120.034C255.026 120.106 255.17 120.232 255.35 120.412ZM258.266 154C258.95 154 259.436 153.856 259.724 153.568C260.048 153.244 260.21 152.74 260.21 152.056V134.236L269.444 145.414V152.056C269.444 152.74 269.588 153.244 269.876 153.568C270.2 153.856 270.704 154 271.388 154H279.488C280.172 154 280.658 153.856 280.946 153.568C281.27 153.244 281.432 152.74 281.432 152.056V117.064C281.432 116.38 281.27 115.894 280.946 115.606C280.658 115.282 280.172 115.12 279.488 115.12H271.388C270.704 115.12 270.2 115.282 269.876 115.606C269.588 115.894 269.444 116.38 269.444 117.064V128.566L258.968 116.578C258.5 116.038 258.014 115.66 257.51 115.444C257.042 115.228 256.466 115.12 255.782 115.12H250.166C249.482 115.12 248.978 115.282 248.654 115.606C248.366 115.894 248.222 116.38 248.222 117.064V152.056C248.222 152.74 248.366 153.244 248.654 153.568C248.978 153.856 249.482 154 250.166 154H258.266ZM259.994 154.054L252.974 159.886C252.83 160.03 252.596 160.156 252.272 160.264C251.984 160.372 251.66 160.426 251.3 160.426H243.2C242.336 160.426 241.706 160.228 241.31 159.832C240.914 159.436 240.716 158.806 240.716 157.942V122.95C240.716 122.482 240.77 122.086 240.878 121.762C241.022 121.438 241.22 121.168 241.472 120.952L248.438 115.066C248.618 114.922 248.852 114.814 249.14 114.742C249.464 114.634 249.806 114.58 250.166 114.58H255.782C256.574 114.58 257.24 114.706 257.78 114.958C258.32 115.21 258.86 115.624 259.4 116.2L263.126 120.52L269.66 115.066C269.84 114.922 270.074 114.814 270.362 114.742C270.686 114.634 271.028 114.58 271.388 114.58H279.488C280.352 114.58 280.982 114.778 281.378 115.174C281.774 115.57 281.972 116.2 281.972 117.064V152.056C281.972 152.524 281.9 152.92 281.756 153.244C281.648 153.568 281.468 153.838 281.216 154.054L274.196 159.886C274.052 160.03 273.818 160.156 273.494 160.264C273.206 160.372 272.882 160.426 272.522 160.426H264.422C263.558 160.426 262.928 160.228 262.532 159.832C262.136 159.436 261.938 158.806 261.938 157.942V151.516L260.75 150.058V152.056C260.75 152.524 260.678 152.92 260.534 153.244C260.426 153.568 260.246 153.838 259.994 154.054ZM316.993 160.426H299.983C295.267 160.426 291.775 159.202 289.507 156.754C287.275 154.306 286.159 151.138 286.159 147.25V132.022C286.159 130.042 286.447 128.332 287.023 126.892C287.599 125.452 288.445 124.246 289.561 123.274L296.527 117.388C297.643 116.452 299.065 115.75 300.793 115.282C302.557 114.814 304.609 114.58 306.949 114.58H320.449C321.313 114.58 321.943 114.778 322.339 115.174C322.735 115.57 322.933 116.2 322.933 117.064V123.598C322.933 124.066 322.861 124.462 322.717 124.786C322.609 125.11 322.429 125.38 322.177 125.596L315.157 131.428C315.013 131.572 314.779 131.698 314.455 131.806C314.167 131.914 313.843 131.968 313.483 131.968H306.463V139.744C306.499 139.672 306.553 139.6 306.625 139.528C306.733 139.42 306.823 139.33 306.895 139.258L313.861 133.372C314.041 133.228 314.275 133.12 314.563 133.048C314.887 132.94 315.229 132.886 315.589 132.886H323.959C324.823 132.886 325.453 133.084 325.849 133.48C326.245 133.876 326.443 134.506 326.443 135.37V152.056C326.443 152.524 326.371 152.92 326.227 153.244C326.119 153.568 325.939 153.838 325.687 154.054L318.667 159.886C318.523 160.03 318.289 160.156 317.965 160.264C317.677 160.372 317.353 160.426 316.993 160.426ZM323.959 154C324.643 154 325.129 153.856 325.417 153.568C325.741 153.244 325.903 152.74 325.903 152.056V135.37C325.903 134.686 325.741 134.2 325.417 133.912C325.129 133.588 324.643 133.426 323.959 133.426H315.589C314.905 133.426 314.401 133.588 314.077 133.912C313.789 134.2 313.645 134.686 313.645 135.37V143.794H308.407C307.579 143.794 306.949 143.578 306.517 143.146C306.121 142.714 305.923 142.048 305.923 141.148V128.242C305.923 127.342 306.193 126.676 306.733 126.244C307.273 125.776 308.101 125.542 309.217 125.542H320.449C321.133 125.542 321.619 125.398 321.907 125.11C322.231 124.786 322.393 124.282 322.393 123.598V117.064C322.393 116.38 322.231 115.894 321.907 115.606C321.619 115.282 321.133 115.12 320.449 115.12H306.949C302.449 115.12 299.101 116.02 296.905 117.82C294.745 119.62 293.665 122.392 293.665 126.136V142.984C293.665 146.728 294.745 149.5 296.905 151.3C299.101 153.1 302.449 154 306.949 154H323.959ZM309.271 149.14C307.291 149.14 305.671 149.014 304.411 148.762C303.151 148.51 302.161 148.114 301.441 147.574C300.721 146.998 300.217 146.278 299.929 145.414C299.677 144.514 299.551 143.434 299.551 142.174V127.054C299.551 124.498 300.127 122.68 301.279 121.6C302.431 120.52 304.735 119.98 308.191 119.98H317.533V120.52H308.191C305.023 120.52 302.881 121.024 301.765 122.032C300.649 123.004 300.091 124.678 300.091 127.054V142.174C300.091 144.514 300.703 146.17 301.927 147.142C303.187 148.114 305.635 148.6 309.271 148.6H319.477V138.286H320.017V149.14H309.271Z" fill="white"/>
</g>
<defs>
<filter id="filter0_d_3_2" x="69.4954" y="5.76999" width="260.948" height="162.656" filterUnits="userSpaceOnUse" color-interpolation-filters="sRGB">
<feFlood flood-opacity="0" result="BackgroundImageFix"/>
<feColorMatrix in="SourceAlpha" type="matrix" values="0 0 0 0 0 0 0 0 0 0 0 0 0 0 0 0 0 0 127 0" result="hardAlpha"/>
<feOffset dy="4"/>
<feGaussianBlur stdDeviation="2"/>
<feComposite in2="hardAlpha" operator="out"/>
<feColorMatrix type="matrix" values="0 0 0 0 0 0 0 0 0 0 0 0 0 0 0 0 0 0 0.25 0"/>
<feBlend mode="normal" in2="BackgroundImageFix" result="effect1_dropShadow_3_2"/>
<feBlend mode="normal" in="SourceGraphic" in2="effect1_dropShadow_3_2" result="shape"/>
</filter>
</defs>
</svg>
