<svg id="Layer_1" data-name="Layer 1" xmlns="http://www.w3.org/2000/svg" viewBox="0 0 91.22 107.54"><path d="M45.2,0A32.46,32.46,0,1,0,77.65,32.45,32.45,32.45,0,0,0,45.2,0Zm0,61.43a29,29,0,1,1,29-29A29,29,0,0,1,45.2,61.43Z" style="fill:#fff"/><path d="M31.79,38.68,20,27.76a25.81,25.81,0,0,0,1.66,15.17l18,3.63Z" style="fill:#fff"/><path d="M29,22h0a9.78,9.78,0,0,1,5.38-2.76l2.68-11a25.86,25.86,0,0,0-16.34,16.7l5.44,5.05A9.81,9.81,0,0,1,29,22Z" style="fill:#fff"/><path d="M60.51,22.38h0a10.54,10.54,0,0,1,1.18,1.43l8.64,2.1a25.83,25.83,0,0,0-10-14.35l-7.38,8A9.83,9.83,0,0,1,60.51,22.38Z" style="fill:#fff"/><path d="M45,24l1.6-1.6a9.26,9.26,0,0,1,.88-.78L58.07,10.15A25.64,25.64,0,0,0,45.39,6.82,26.35,26.35,0,0,0,40,7.39L37.09,19.15A9.7,9.7,0,0,1,43,22Z" style="fill:#fff"/><path d="M70.94,28.83l-7.85-1.91a9.84,9.84,0,0,1-2.17,9l8,7.42a25.61,25.61,0,0,0,2.3-10.65A25.26,25.26,0,0,0,70.94,28.83Z" style="fill:#fff"/><path d="M58.91,37.92l-2.68,2.67-4.13,17A25.9,25.9,0,0,0,67.69,45.69l-8.59-8Z" style="fill:#fff"/><path d="M43.11,50,23.27,46A25.9,25.9,0,0,0,37.07,57.1l6.33-6.82Z" style="fill:#fff"/><path d="M46.33,50.5l-6.78,7.31a25.79,25.79,0,0,0,9.63.39l3.4-14Z" style="fill:#fff"/><text transform="translate(1.48 92.02) scale(1.6 1)" style="font-size:31.92616081237793px;fill:#fff;font-family:SignPainter-HouseScriptSemibold, SignPainter;font-weight:600;letter-spacing:-0.031998504217397465em">F<tspan x="10.57" y="0" style="letter-spacing:0.008004413382927672em">oc</tspan><tspan x="32.15" y="0" style="letter-spacing:0.0030064423471761834em">u</tspan><tspan x="45.14" y="0" style="letter-spacing:0.008004413382927672em">s</tspan></text></svg>